<svg width="11259" height="6532" viewBox="0 0 11259 6532" fill="none" xmlns="http://www.w3.org/2000/svg">
<path d="M4781.44 3174.38C4750.93 3240.88 4757.43 3345.84 4769.94 3354.88C4883.43 3436.88 5286.43 3393.38 5360.94 3267.88C5360.94 3267.88 5390.14 3286.09 5410.44 3294.38C5465.86 3317.02 5525.93 3315.03 5561.93 3307.38C5612.93 3296.55 5634.81 3271.71 5681.44 3248.38C5695.43 3241.38 5698.93 3224.88 5681.44 3222.88C5675.47 3222.2 5643.93 3230.7 5626.44 3229.88C5595.22 3228.42 5549.94 3206.38 5549.94 3206.38C5549.94 3206.38 5584.43 3165.38 5591.44 3157.38C5603.12 3144.05 5605.43 3125.73 5591.44 3122.38C5577.45 3119.04 5546.93 3116.38 5522.44 3105.88C5529.43 3097.88 5532.93 3090.88 5536.94 3077.38C5536.94 3077.38 5668.93 3117.38 5717.94 3115.38C5762.56 3113.56 5828.93 3113.88 5830.94 3097.88C5832.81 3082.97 5808.73 3038.07 5775.94 3021.38C5748.43 3007.38 5714.93 2994.88 5702.93 2982.38C5692.83 2971.86 5689.49 2962.05 5681.44 2949.88C5673.55 2937.95 5658.44 2921.38 5658.44 2921.38C5658.44 2921.38 5768.45 2953.29 5838.44 2975.38C5930.18 3004.33 5977.82 3037.37 6071.93 3053.88C6135.32 3065 6172.43 3074.14 6235.93 3060.88C6293.43 3048.88 6338.93 3036.88 6371.93 3017.38C6394.56 3004.01 6408.41 2975.88 6402.44 2960.88C6393.88 2939.38 6372.59 2938.16 6349.94 2933.38C6314.43 2925.88 6252.94 2910.38 6252.94 2910.38C6252.94 2910.38 6255.53 2872.97 6244.44 2853.38C6227.87 2824.11 6168.44 2812.88 6168.44 2812.88C6168.44 2812.88 6176.58 2766.03 6151.93 2742.38C6117.27 2709.13 6013.93 2712.88 6013.93 2712.88C6063.42 2654.88 6102.43 2615.38 6135.44 2540.88C6121.44 2503.38 6111.43 2484.38 6082.94 2442.88C6100.43 2418.38 6111.93 2397.88 6121.44 2364.88C6114.43 2346.88 6111.43 2339.38 6091.94 2324.88C6114.43 2288.38 6125.93 2266.38 6135.44 2215.88C6135.44 2215.88 6100.43 2190.13 6046.94 2206.38C5956.43 2233.88 5898.32 2294.25 5838.44 2382.38C5797.6 2442.48 5799.66 2489.61 5763.94 2552.88C5737.98 2598.86 5728.51 2630.43 5688.93 2665.38C5662.32 2688.87 5646.85 2710.4 5611.44 2712.88L5610.43 2712.95C5591.73 2714.26 5578.09 2715.22 5562.94 2703.88C5556.93 2699.38 5586.46 2675.93 5579.44 2658.38C5575.84 2649.39 5569.64 2646.87 5562.94 2639.88C5553.29 2629.81 5541.74 2628.48 5536.94 2615.38C5533.24 2605.3 5542.5 2597.07 5536.94 2587.88C5529.84 2576.15 5515.81 2571.47 5503.44 2577.38C5491.93 2582.88 5486.28 2591.88 5472.94 2595.88C5462.93 2598.88 5448.93 2595.88 5450.44 2587.88C5451.4 2582.82 5463.43 2560.88 5486.94 2530.38C5492.19 2523.57 5481.54 2513.38 5472.94 2513.38C5431.43 2513.38 5325.44 2560.88 5325.44 2560.88C5325.44 2560.88 5233.48 2502.16 5184.94 2530.38C5114.43 2571.38 5080.89 2619.88 5040.44 2671.88C4987.93 2739.38 4977.94 2840.88 4977.94 2840.88C4911.43 2904.88 4820.43 3019.88 4781.44 3174.38Z" fill="white"/>
<path d="M6707.71 1456.18C6640.28 1545.07 6615.2 1703.45 6630.83 1721.06C6772.61 1880.7 7386.9 1949.39 7539.37 1787.25C7539.37 1787.25 7576.81 1824.02 7604.27 1843.08C7679.27 1895.13 7769.35 1912.06 7825.47 1912.6C7904.97 1913.36 7945.77 1883.63 8022.9 1864.34C8046.04 1858.56 8056.72 1835.16 8031.35 1826.39C8022.68 1823.39 7972.92 1825.6 7947.16 1818.59C7901.17 1806.09 7841.07 1758.28 7841.07 1758.28C7841.07 1758.28 7905.98 1708.68 7919.06 1699.09C7940.87 1683.11 7950.37 1656.6 7930.65 1646.99C7910.94 1637.38 7866.38 1623.32 7833.41 1599.58C7846.46 1589.99 7853.99 1580.73 7864.43 1561.96C7864.43 1561.96 8047.65 1665.21 8121.27 1678.45C8188.29 1690.51 8286.98 1712.97 8295.27 1689.82C8303 1668.24 8282.02 1593.43 8238.73 1557.74C8202.42 1527.79 8156.69 1498.09 8142.97 1475.51C8131.41 1456.5 8129.69 1440.79 8121.74 1420.01C8113.95 1399.64 8096.94 1369.97 8096.94 1369.97C8096.94 1369.97 8250.13 1453.91 8347 1509.96C8473.97 1583.43 8533.95 1648.39 8668.56 1704.12C8759.24 1741.67 8811.46 1767.55 8910.37 1768.85C8999.93 1770.02 9071.63 1767.23 9127.21 1749.13C9165.33 1736.72 9195.26 1699.43 9191.34 1675.13C9185.71 1640.28 9154.42 1631.42 9122.3 1616.81C9071.92 1593.89 8985.52 1550.45 8985.52 1550.45C8985.52 1550.45 9001.76 1495.61 8991.74 1462.79C8976.77 1413.74 8892.03 1377.34 8892.03 1377.34C8892.03 1377.34 8919.65 1310.29 8890.79 1266.93C8850.21 1205.96 8695.14 1177.32 8695.14 1177.32C8788.01 1107.38 8859.16 1061.49 8932.97 961.528C8924.54 901.075 8915.93 869.478 8887.27 798.267C8921.41 767.592 8945.32 740.884 8970.41 694.908C8965.93 665.797 8963.95 653.639 8939.74 625.599C8985.3 578.717 9009.7 549.777 9040.58 477.751C9040.58 477.751 8996.99 427.823 8911.99 434.306C8768.16 445.276 8661.68 515.887 8543.35 627.251C8462.66 703.194 8450.13 774.021 8376 856.379C8322.13 916.229 8297.59 960.09 8227.09 999.003C8179.71 1025.16 8149.54 1052.09 8096.02 1044.05L8094.49 1043.82C8066.23 1039.58 8045.6 1036.49 8026.8 1014.59C8019.35 1005.91 8071.07 980.777 8066.43 952.329C8064.06 937.759 8055.65 931.951 8048 919.327C8036.97 901.135 8020.22 895.337 8017.41 874.249C8015.24 858.016 8031.75 848.83 8026.51 833.314C8019.82 813.506 8000.49 801.89 7980.12 806.592C7961.17 810.967 7949.78 822.497 7928.6 824.031C7912.7 825.182 7892.85 816.08 7897.75 804.672C7900.85 797.451 7926.03 768.782 7971.12 731.167C7981.2 722.766 7968.72 704.074 7955.91 701.226C7894.12 687.481 7720.63 723.092 7720.63 723.092C7720.63 723.092 7603.18 605.229 7521.58 631.169C7403.05 668.851 7337.07 729.941 7259.64 793.951C7159.12 877.04 7110.64 1024.82 7110.64 1024.82C6990.45 1098.06 6816.91 1239.11 6707.71 1456.18Z" fill="white"/>
<path d="M9458.45 3143.44C9453.93 3089.22 9416.95 3010.44 9416.95 3010.44C9425.95 2994.44 9440.45 2999.44 9453.45 3003.44C9453.45 3003.44 9461.86 3087.92 9487.45 3133.94C9514.56 3182.7 9541.67 3204.08 9587.45 3235.94C9627.24 3263.64 9658.95 3289.44 9699.45 3289.44C9723.75 3289.44 9742.11 3291.87 9751.45 3269.44C9756.45 3257.44 9729.45 3208.94 9738.45 3175.44C9751.61 3126.45 9757.45 3046.94 9757.45 3046.94C9757.45 3046.94 9831.45 3179.94 9869.45 3276.94C9889.43 3327.93 9882.15 3366.42 9904.45 3416.44C9941.71 3500.05 10064.5 3578.44 10064.5 3578.44L10167 3630.94C10167 3630.94 10219.2 3663.83 10248 3648.94C10273.6 3635.67 10277.7 3615.63 10285.9 3587.94C10294.4 3559.75 10285.6 3537.61 10289.5 3508.44C10292.1 3488.46 10303.3 3478.06 10294.4 3459.94C10287.9 3446.58 10272.7 3447.53 10268 3433.44C10264.4 3422.94 10268 3402.96 10248 3380.44C10232.1 3362.62 10210.4 3374.09 10199.4 3352.94C10196.8 3347.94 10196.8 3312.77 10208 3289.44C10222.9 3258.16 10253.4 3241.94 10260.9 3224.94C10268.6 3207.61 10266.6 3194.52 10260.9 3176.44C10251.5 3145.95 10225.8 3146.4 10208 3119.94C10196.2 3102.57 10176.4 3079.04 10185 3071.44C10189.4 3067.44 10220.4 3074.44 10242.5 3071.44C10264.5 3068.45 10267.7 3054.3 10289.4 3049.44C10315.9 3043.5 10349.4 3057.79 10359.4 3051.94C10380.7 3039.48 10370.5 3017.09 10385.5 2997.44C10396.6 2982.69 10401.5 2980.14 10410.4 2963.94C10424.1 2939.33 10404.7 2916.71 10420.5 2893.44C10428.9 2880.94 10492.4 2861.44 10497.9 2844.94C10503.5 2828.44 10486.1 2771.36 10503.5 2729.94C10521 2688.18 10595.6 2668.76 10586.5 2648.94C10577.3 2629.13 10565.4 2619.2 10545.4 2610.44C10513.3 2596.33 10487.6 2614.44 10452.5 2614.44C10426.3 2614.44 10413.9 2612.85 10388.4 2618.94C10360.7 2625.58 10348.9 2643.11 10321 2648.94C10300.7 2653.17 10288.5 2646.57 10268 2648.94C10207.4 2655.94 10091.7 2758.91 9965.45 2773.44C9909.97 2779.82 9832.45 2779.44 9822.45 2768.94C9811.05 2756.97 9798.26 2744.58 9805.95 2729.94C9811.48 2719.44 9840.45 2743.09 9861.45 2745.94C9895.3 2750.53 9915.74 2751.25 9942.45 2729.94C9969.64 2708.26 9958.45 2682.78 9975.45 2652.44C9989.1 2628.05 10016.9 2631.44 10024.9 2590.94C10031.9 2555.79 9990.5 2508.89 9992.95 2500.94C9994.64 2495.44 10015.5 2437.44 9979.45 2383.44C9961.1 2355.94 9919.32 2342.85 9875.45 2330.44C9852.45 2323.94 9819 2301.94 9822.45 2295.94C9829.95 2282.94 9856.01 2268.94 9856.95 2260.94C9859.77 2236.94 9894.45 2212.44 9790.95 2205.94C9719.6 2201.47 9629.83 2193.81 9529.45 2216.44C9474.44 2228.85 9442.76 2239.52 9392.95 2265.94C9351.08 2288.16 9330.62 2301.03 9293.45 2330.44C9261.45 2355.78 9251.01 2379.13 9211.95 2390.94C9184.66 2399.2 9170.4 2397.6 9141.95 2399.44C9036.94 2406.24 8980.45 2436.24 8884.95 2480.44C8798.73 2520.36 8687.95 2590.44 8677.45 2607.44C8666.96 2624.44 8648.45 2687.94 8656.45 2697.44C8662.67 2704.83 8716.67 2698.13 8723.46 2700.94C8743.96 2709.44 8746.46 2729.94 8725.95 2729.94C8718.46 2729.94 8686.38 2723.44 8677.45 2729.94C8671.96 2733.94 8771.7 2844.61 8848.95 2901.94C8936.2 2966.69 8977.95 3003.44 9097.45 3025.44C9139.95 3033.27 9142.45 3034.49 9162.95 3025.44C9230.95 2995.44 9183.7 3097.79 9189.95 3143.44C9205.93 3260.11 9242.45 3346.44 9331.95 3409.44C9360.16 3429.3 9413.05 3443.44 9416.95 3433.44C9420.85 3423.44 9438.86 3388.44 9425.95 3365.94C9413.05 3343.44 9415.95 3307.94 9435.45 3276.94C9452.45 3249.92 9463.24 3200.91 9458.45 3143.44Z" fill="white"/>
<path fill-rule="evenodd" clip-rule="evenodd" d="M545.5 1839.5L565.5 1862L533 1928L654.5 1999.5L692.5 1940L743 1956.5L750.5 2017L886 2008.5L904.5 1999.5L886 1947.5L950 1924L994.5 1988L1099.5 1908.5L1060.5 1839.5L1112.5 1754L1175.5 1768L1208 1629L1142 1616.5L1124.5 1530L1196 1492.5L1124.5 1370L1057 1401L1019.5 1364L1044 1295L922.5 1238.5L900 1295L844 1284.5L830.5 1216.5L710.5 1230.5L714.5 1299.5L683.5 1306.5L651 1259.5L543.5 1318L565 1378L543.5 1402.5L500.5 1371L425 1488.5L476.5 1524L471.5 1552.5L425 1546.5L406.5 1686.5L468 1690L480.5 1727L412 1768L468 1877.5L545.5 1839.5ZM798.5 1887C948.721 1887 1070.5 1762.09 1070.5 1608C1070.5 1453.91 948.721 1329 798.5 1329C648.279 1329 526.5 1453.91 526.5 1608C526.5 1762.09 648.279 1887 798.5 1887Z" fill="white"/>
<path fill-rule="evenodd" clip-rule="evenodd" d="M634 1601C645.322 1601 654.5 1592.05 654.5 1581C654.5 1569.95 645.322 1561 634 1561C622.678 1561 613.5 1569.95 613.5 1581C613.5 1592.05 622.678 1601 634 1601ZM879.5 1605C879.5 1653.6 840.325 1693 792 1693C743.675 1693 704.5 1653.6 704.5 1605C704.5 1556.4 743.675 1517 792 1517C840.325 1517 879.5 1556.4 879.5 1605ZM786 1450C797.322 1450 806.5 1441.05 806.5 1430C806.5 1418.95 797.322 1410 786 1410C774.678 1410 765.5 1418.95 765.5 1430C765.5 1441.05 774.678 1450 786 1450ZM966.5 1530C966.5 1541.05 957.322 1550 946 1550C934.678 1550 925.5 1541.05 925.5 1530C925.5 1518.95 934.678 1510 946 1510C957.322 1510 966.5 1518.95 966.5 1530ZM896 1788C907.322 1788 916.5 1779.05 916.5 1768C916.5 1756.95 907.322 1748 896 1748C884.678 1748 875.5 1756.95 875.5 1768C875.5 1779.05 884.678 1788 896 1788ZM733.5 1782C733.5 1793.05 724.322 1802 713 1802C701.678 1802 692.5 1793.05 692.5 1782C692.5 1770.95 701.678 1762 713 1762C724.322 1762 733.5 1770.95 733.5 1782ZM1051.5 1616.5C1051.5 1755.95 938.228 1869 798.5 1869C658.772 1869 545.5 1755.95 545.5 1616.5C545.5 1477.05 658.772 1364 798.5 1364C938.228 1364 1051.5 1477.05 1051.5 1616.5Z" fill="white"/>
<g filter="url(#filter0_d_136_171)">
<path d="M1647.64 605.703C1546.85 605.347 1527.12 755.679 1526.2 1014.88C1525.29 1274.08 1543.96 1424.54 1644.76 1424.9C1724.75 1425.18 1760.28 1334.1 1760.87 1166.11L1972.07 1166.85C1971.09 1443.65 1885.77 1592.15 1644.17 1591.3C1362.57 1590.3 1315.35 1369.34 1316.6 1014.14C1317.86 658.94 1376.24 436.745 1659.44 437.744C1899.44 438.59 1974.08 597.255 1973.13 866.053L1761.93 865.308C1762.53 695.709 1727.64 605.985 1647.64 605.703Z" fill="white"/>
<path d="M2136.26 457.026L2566.66 458.544L2663.51 1578.89L2461.91 1578.18L2443.5 1354.12L2253.1 1353.44L2233.11 1577.37L2031.51 1576.66L2136.26 457.026ZM2269.69 1185.5L2428.09 1186.06L2380.47 625.888L2321.27 625.68L2269.69 1185.5Z" fill="white"/>
<path d="M3154.66 996.622L3278.15 461.054L3554.95 462.031L3551 1582.02L3349.4 1581.31L3351.61 955.716L3199 1580.78L3106.2 1580.45L2958.01 954.328L2955.8 1579.92L2754.21 1579.21L2758.16 459.22L3034.95 460.196L3154.66 996.622Z" fill="white"/>
<path d="M3984.02 463.544C4163.21 468.977 4250.75 598.886 4250.04 800.485C4249.29 1011.68 4136.85 1136.09 3919.25 1135.32L3879.25 1135.18L3877.67 1583.18L3676.07 1582.47L3680.03 462.472L3984.02 463.544ZM3921.45 967.327C3995.05 967.587 4038.46 906.939 4038.84 799.74C4039.2 697.341 4007.43 631.628 3932.23 631.363L3881.03 631.182L3879.85 967.18L3921.45 967.327Z" fill="white"/>
<path d="M4325.33 464.749L4832.53 466.538L4831.94 634.537L4526.34 633.459L4525 1012.66L4753.8 1013.46L4753.21 1181.46L4524.41 1180.66L4522.98 1585.45L4321.38 1584.74L4325.33 464.749Z" fill="white"/>
<path d="M5097.98 1587.48L4896.38 1586.77L4900.33 466.777L5101.93 467.488L5097.98 1587.48Z" fill="white"/>
<path d="M6357.49 639.919L6101.49 639.016L6100.83 826.215L6280.03 826.847L6279.44 994.846L6100.24 994.213L6099.67 1155.81L6355.67 1156.72L6355.08 1324.71L5897.48 1323.1L5900.49 470.305L6358.08 471.92L6357.49 639.919ZM5599.04 1106.05C5711.86 1327.25 5839.47 1438.1 6129.07 1439.12C6193.07 1439.34 6263.49 1434.79 6345.13 1423.88L6344.53 1591.88C6248.49 1604.34 6163.67 1610.44 6088.47 1610.18C5722.07 1608.88 5560.98 1464.31 5426.01 1171.04L5424.54 1588.63L5222.94 1587.92L5226.89 467.929L5532.49 469.007C5716.49 469.656 5807.2 609.177 5806.55 793.176C5806.03 938.775 5736.8 1061.73 5599.04 1106.05ZM5477.97 956.818C5556.37 957.095 5596.62 886.836 5596.96 789.237C5597.28 699.637 5562.3 637.113 5490.3 636.859L5427.9 636.639L5426.77 956.637L5477.97 956.818Z" fill="white"/>
</g>
<path fill-rule="evenodd" clip-rule="evenodd" d="M1030.49 690.506C1030.49 865.304 903.524 1007.01 720.994 1007.01C538.464 1007.01 390.493 865.304 390.493 690.506C390.493 515.708 538.464 374.006 720.994 374.006C903.524 374.006 1030.49 515.708 1030.49 690.506ZM805.494 678.006C805.494 730.473 759.603 773.006 702.994 773.006C646.385 773.006 600.494 730.473 600.494 678.006C600.494 625.539 646.385 583.006 702.994 583.006C759.603 583.006 805.494 625.539 805.494 678.006ZM511.948 709.006C523.446 799.217 601.686 869.006 696.494 869.006C718.42 869.006 739.46 865.273 758.994 858.418L805.494 925.19C775.135 938.584 741.662 946.006 706.494 946.006C571.37 946.006 461.284 836.447 456.646 699.506L511.948 709.006ZM519.364 630.006C543.408 556.329 613.621 503.006 696.494 503.006C737.207 503.006 774.864 515.876 805.494 537.706C852.147 570.956 882.493 624.994 882.493 686.006C882.493 733.117 864.4 776.07 834.676 808.506L882.493 871.962C928.191 825.664 956.493 761.463 956.493 690.506C956.493 602.19 912.65 524.34 845.994 478.45C823.909 463.246 799.321 451.55 772.994 444.144C751.819 438.188 729.52 435.006 706.494 435.006C592.173 435.006 495.774 513.428 465.992 620.506L519.364 630.006Z" fill="white"/>
<path fill-rule="evenodd" clip-rule="evenodd" d="M465.992 472.506L483.994 458.506C432.994 349.504 530.493 350.506 567.493 400.506L589.494 392.506C606.494 313.502 636.994 302.501 679.994 374.006L706.494 370.504C726.494 316 794.994 283.001 809.494 370.504L827.494 379.504C870.494 353 942.993 336 932.493 444.144L945.993 458.506C1017.99 458.506 1032.99 512.5 1007.99 546.504L1017.99 583.006C1070.49 566 1077.99 632 1032.99 655.004V693.004C1093.99 709 1069.99 763.504 1032.99 763.504L1022.49 792.504C1069.49 819 1055.49 913.504 965.993 899.004L951.493 913.504C999.493 980 907.994 1059 837.494 989.504L807.494 1001.5C831.994 1094.5 728.494 1108.5 687.994 1009H662.994C596.994 1091.5 545.993 1073 551.993 975.004L531.993 961.004C470.993 1009 384.494 994.5 444.994 887.004L422.994 852.504C366.496 869.006 275.993 833 385.494 757.004L382.994 706.004C307.499 682.5 294.496 605.5 396.993 590.004L404.493 567.504C375.5 538 352 432 465.992 472.506ZM720.994 1007.01C903.524 1007.01 1030.49 865.304 1030.49 690.506C1030.49 515.708 903.524 374.006 720.994 374.006C538.464 374.006 390.493 515.708 390.493 690.506C390.493 865.304 538.464 1007.01 720.994 1007.01Z" fill="white"/>
<path d="M740.5 508.158C764.278 513.833 786.27 524.005 805.494 537.706L845.994 478.45C823.909 463.246 799.321 451.55 772.994 444.144L740.5 508.158Z" fill="white"/>
<path fill-rule="evenodd" clip-rule="evenodd" d="M816 3721C1473.76 3331.13 1871.22 3689.25 1871.5 3689.5C1995.5 3641 2264.5 3639 2200.5 3768C2406.5 3768 2534 3923 2460 4091.5C2485.54 4119.83 2484.64 4134.15 2483.24 4156.57V4156.6C2482.89 4162.26 2482.5 4168.45 2482.5 4175.5C2598.5 4175.5 2717.5 4254.5 2717.5 4363.5C2898 4397.5 3030 4445.5 3023.5 4636.5C3096.5 4717 3106 4797.5 3089 4895C3195.5 4864.5 3271.5 4895 3339 4922.5C3459 4889 3491.5 4947 3485.5 5027C3540.81 4943.84 3609.42 4936.99 3683.52 4929.6C3702.53 4927.7 3721.9 4925.77 3741.5 4922.5C3916 4804.5 4076 4835.5 4076 4959C4220 4587.5 4622 4329.5 4807 4546.5C4861 4213 5032 3909 5460 4123.5C5471.3 4063.75 5501.15 4015.84 5525.4 3976.93C5541.93 3950.4 5555.85 3928.06 5559.5 3909C5563.46 3888.3 5562 3878.85 5559.97 3865.79C5557.39 3849.19 5553.9 3826.75 5559.5 3768C5569.5 3663 6201 3408.5 6648 3687.5C6648 3687.5 6912.5 3656 6928 3768C7269.14 3795.22 7232.44 3992.42 7216.71 4076.92L7216.7 4076.96C7215.67 4082.48 7214.74 4087.52 7214 4092C7202.02 4164.91 7225.94 4175.47 7226 4175.5C7339 4160 7432.5 4255 7497.5 4377C7637 4385 7794 4485 7758.5 4625C7814.5 4705.5 7868.5 4786 7826.5 4891C7917.5 4862.5 8005 4883 8129.5 4922.5C8149 4906.5 8263 4910 8202.5 5058.5C8293.5 4954 8342.5 4911.5 8495.5 4954C8589.5 4856 8667.5 4810 8808.5 4891C9097 4334.5 9694.5 4390 9822 4787C9909.5 4713 10197 4837.5 10156.5 5032.5C10258 4915.5 10609.5 5011.5 10585 5058.5C10560.5 5105.5 10650.5 5533.7 10727.5 5459.5C11084.5 5115.5 11258.5 5325 11258.5 5325V6531.5H69V4720.5L0 4665L69 4426.5C216.208 3973.83 460.735 4025.34 657.795 4066.85C683.62 4072.29 708.631 4077.56 732.5 4081.5C732.637 4081.31 832.387 3944.98 816 3914.5C799.602 3884 789.5 3736.71 816 3721ZM836.5 5969.5L814 6419L1260.5 6449L1283.5 6293.5C1234 6285.5 1092.5 6177 1297 6140.5V5991.5L1140 5980.5C1118 6089 1008.5 6059.5 991.5 5969.5L836.5 5957V5969.5ZM10490.5 5648L10494.5 5717L10463.5 5724L10431 5677L10323.5 5735.5L10345 5795.5L10323.5 5820L10280.5 5788.5L10205 5906L10256.5 5941.5L10251.5 5970L10205 5964L10186.5 6104L10248 6107.5L10260.5 6144.5L10192 6185.5L10248 6295L10325.5 6257L10345.5 6279.5L10313 6345.5L10434.5 6417L10472.5 6357.5L10523 6374L10530.5 6434.5L10666 6426L10684.5 6417L10666 6365L10730 6341.5L10774.5 6405.5L10879.5 6326L10840.5 6257L10892.5 6171.5L10955.5 6185.5L10988 6046.5L10922 6034L10904.5 5947.5L10976 5910L10904.5 5787.5L10837 5818.5L10799.5 5781.5L10824 5712.5L10702.5 5656L10680 5712.5L10624 5702L10610.5 5634L10490.5 5648ZM1799.5 6434H2049.5V6183H1799.5V6434ZM2154.5 6183V6434H2404.5V6183H2154.5ZM2509.5 6434H2759.5V6183H2509.5V6434ZM10578.5 5746.5C10728.7 5746.5 10850.5 5871.41 10850.5 6025.5C10850.5 6179.59 10728.7 6304.5 10578.5 6304.5C10428.3 6304.5 10306.5 6179.59 10306.5 6025.5C10306.5 5871.41 10428.3 5746.5 10578.5 5746.5ZM10578.5 5781.5C10438.8 5781.5 10325.5 5894.55 10325.5 6034C10325.5 6173.45 10438.8 6286.5 10578.5 6286.5C10718.2 6286.5 10831.5 6173.45 10831.5 6034C10831.5 5894.55 10718.2 5781.5 10578.5 5781.5ZM10493 6179.5C10504.3 6179.5 10513.5 6188.45 10513.5 6199.5C10513.5 6210.55 10504.3 6219.5 10493 6219.5C10481.7 6219.5 10472.5 6210.55 10472.5 6199.5C10472.5 6188.45 10481.7 6179.5 10493 6179.5ZM10676 6165.5C10687.3 6165.5 10696.5 6174.45 10696.5 6185.5C10696.5 6196.55 10687.3 6205.5 10676 6205.5C10664.7 6205.5 10655.5 6196.55 10655.5 6185.5C10655.5 6174.45 10664.7 6165.5 10676 6165.5ZM10572 5934.5C10620.3 5934.5 10659.5 5973.9 10659.5 6022.5C10659.5 6071.1 10620.3 6110.5 10572 6110.5C10523.7 6110.5 10484.5 6071.1 10484.5 6022.5C10484.5 5973.9 10523.7 5934.5 10572 5934.5ZM603.5 5561C629 5395.5 429.5 5348.5 439 5540.5L311 5526.5L279 5957L407.5 5969.5C425.5 6098.5 565.5 6086.5 565.5 5980.5L702 5991.5L713 5863.5C810.5 5922 870.5 5700.5 735 5700.5L744.5 5561H603.5ZM10414 5978.5C10425.3 5978.5 10434.5 5987.45 10434.5 5998.5C10434.5 6009.55 10425.3 6018.5 10414 6018.5C10402.7 6018.5 10393.5 6009.55 10393.5 5998.5C10393.5 5987.45 10402.7 5978.5 10414 5978.5ZM10726 5927.5C10737.3 5927.5 10746.5 5936.45 10746.5 5947.5C10746.5 5958.55 10737.3 5967.5 10726 5967.5C10714.7 5967.5 10705.5 5958.55 10705.5 5947.5C10705.5 5936.45 10714.7 5927.5 10726 5927.5ZM10566 5827.5C10577.3 5827.5 10586.5 5836.45 10586.5 5847.5C10586.5 5858.55 10577.3 5867.5 10566 5867.5C10554.7 5867.5 10545.5 5858.55 10545.5 5847.5C10545.5 5836.45 10554.7 5827.5 10566 5827.5ZM836.5 5651.5L974 5691C1055 5561 1140 5672 1118 5733.5L1260.5 5770L1311 5623C1416 5638.5 1450.5 5521 1347.5 5474L1385.5 5342.5L1247.5 5301.5C1238 5363.5 1100.5 5389 1100.5 5260.5L958 5224L836.5 5651.5Z" fill="white"/>
<path d="M1502.76 2201C1416.91 2239.69 1398 2351.56 1398 2511C1398 2710.8 1427.7 2835 1581.6 2835H1375.5V2201H1502.76ZM2321.11 2201C2232.52 2239.69 2213.6 2351.56 2213.6 2511C2213.6 2710.8 2251.4 2835 2410.7 2835H1581.6C1735.5 2835 1765.2 2710.8 1765.2 2511C1765.2 2351.56 1746.29 2239.69 1660.44 2201H1822.81V2826H1936.21V2587.5C1985.71 2759.4 2022.61 2832.3 2136.01 2832.3C2154.01 2832.3 2172.91 2830.5 2194.51 2826.9V2732.4C2130.61 2735.1 2086.51 2709.9 2037.91 2552.4C2108.11 2527.2 2144.11 2466.9 2144.11 2380.5C2144.11 2287.26 2107.21 2219.51 2032.26 2201H2321.11ZM3702.96 2201C3648.92 2226.6 3627.08 2283.14 3627.08 2354.4C3627.08 2563.2 3825.08 2521.8 3825.08 2664.9C3825.08 2709.9 3824.17 2741.4 3781.88 2741.4C3736.88 2741.4 3731.48 2706.3 3731.48 2633.4H3612.67C3612.67 2767.5 3655.88 2835 3776.48 2835H2410.7C2570.9 2835 2583.5 2707.2 2583.5 2529.9V2483.1H2396.3V2576.7H2468.3C2468.3 2659.5 2466.5 2741.4 2408 2741.4C2345 2741.4 2331.5 2656.8 2331.5 2511C2331.5 2365.2 2341.4 2280.6 2398.1 2280.6C2443.1 2280.6 2454.8 2331 2454.8 2426.4H2572.7C2572.7 2311.34 2552.38 2232.24 2483.16 2201H2677.52L2621.27 2826H2734.67L2745.47 2700H2852.57L2863.37 2826H2976.77L2920.52 2201H3027.79V2826H3141.19V2470.5L3243.79 2817.9L3241.09 2826H3377.89V2201H3448.78V2826H3562.18V2201H3702.96ZM4736.5 2835H3776.48C3911.48 2835 3942.98 2755.8 3942.98 2661.3C3942.98 2475 3744.98 2484 3744.98 2352.6C3744.98 2308.5 3751.28 2280.6 3778.28 2280.6C3802.58 2280.6 3815.17 2316.6 3815.17 2388.6H3928.58C3928.58 2294.18 3911.38 2228.74 3854.48 2201H3996.34V2826H4281.64V2731.5H4109.74V2565H4238.44V2470.5H4109.74V2290.5H4281.64V2201H4330.33V2826H4443.73V2587.5C4493.23 2759.4 4530.13 2832.3 4643.53 2832.3C4661.53 2832.3 4680.43 2830.5 4702.03 2826.9V2732.4C4638.13 2735.1 4594.03 2709.9 4545.43 2552.4C4615.63 2527.2 4651.63 2466.9 4651.63 2380.5C4651.63 2287.26 4614.73 2219.51 4539.78 2201H4736.5V2835ZM1581.6 2280.6C1638.3 2280.6 1647.3 2365.2 1647.3 2511C1647.3 2656.8 1638.3 2741.4 1581.6 2741.4C1524.9 2741.4 1515.9 2656.8 1515.9 2511C1515.9 2365.2 1524.9 2280.6 1581.6 2280.6ZM2815.67 2290.5L2843.57 2605.5H2754.47L2782.37 2290.5H2815.67ZM3264.49 2538L3170.48 2201H3264.49V2538ZM1965.01 2290.5C2007.31 2290.5 2025.31 2326.5 2025.31 2380.5C2025.31 2433.6 2001.01 2469.6 1959.61 2469.6H1936.21V2290.5H1965.01ZM4472.53 2290.5C4514.83 2290.5 4532.83 2326.5 4532.83 2380.5C4532.83 2433.6 4508.53 2469.6 4467.13 2469.6H4443.73V2290.5H4472.53Z" fill="white"/>
<g filter="url(#filter1_d_136_171)">
<path d="M1491 1796C1459.5 1796 1453.5 1843 1453.5 1924C1453.5 2005 1459.5 2052 1491 2052C1516 2052 1527 2023.5 1527 1971H1593C1593 2057.5 1566.5 2104 1491 2104C1403 2104 1388 2035 1388 1924C1388 1813 1406 1743.5 1494.5 1743.5C1569.5 1743.5 1593 1793 1593 1877H1527C1527 1824 1516 1796 1491 1796ZM1643.53 1749H1778.03L1809.53 2099H1746.53L1740.53 2029H1681.03L1675.03 2099H1612.03L1643.53 1749ZM1686.03 1976.5H1735.53L1720.03 1801.5H1701.53L1686.03 1976.5ZM1969.37 1939V1749H2032.37V2099H1956.37L1957.87 2094.5L1900.87 1901.5V2099H1837.87V1749H1916.37L1969.37 1939ZM2212.76 1910.5C2247.76 1923.5 2263.76 1954 2263.76 1996.5C2263.76 2057 2232.76 2096 2163.76 2099H2071.76V1749H2167.26L2166.76 1749.5C2222.76 1753 2249.26 1786.5 2249.26 1838.5C2249.26 1871 2236.76 1895.5 2212.76 1910.5ZM2134.76 1801.5V1893.5H2140.76C2172.26 1893.5 2183.76 1877 2183.76 1846C2183.76 1817.5 2172.76 1801.5 2144.26 1801.5H2134.76ZM2134.76 2046.5H2155.76C2183.76 2046.5 2198.26 2029 2198.26 1995C2198.26 1967 2185.76 1946 2159.26 1946H2134.76V2046.5ZM2292.46 1749H2450.96V1801.5H2355.46V1901.5H2426.96V1954H2355.46V2046.5H2450.96V2099H2292.46V1749ZM2597.51 1947C2624.51 2034.5 2649.01 2048.5 2684.51 2047V2099.5C2672.51 2101.5 2662.01 2102.5 2652.01 2102.5C2589.01 2102.5 2568.51 2062 2541.01 1966.5V2099H2478.01V1749H2573.01C2629.01 1750.5 2656.51 1791.5 2656.51 1851.5C2656.51 1899.5 2636.51 1933 2597.51 1947ZM2554.01 1901C2577.01 1901 2590.51 1881 2590.51 1851.5C2590.51 1821.5 2580.51 1801.5 2557.01 1801.5H2541.01V1901H2554.01ZM2975.04 1946.5L2966.54 2015.5H2903.54L2935.04 1749H3059.54L3091.04 2015.5H3028.04L3019.54 1946.5H2975.04ZM2823.04 1948C2858.54 2017 2898.54 2051.5 2989.04 2051.5C3009.04 2051.5 3031.04 2050 3056.54 2046.5V2099C3026.54 2103 3000.04 2105 2976.54 2105C2862.04 2105 2811.54 2060 2769.04 1968.5V2099H2706.04V1749H2801.54C2859.04 1749 2887.54 1792.5 2887.54 1850C2887.54 1895.5 2866.04 1934 2823.04 1948ZM2992.04 1801.5L2981.04 1894H3013.54L3002.54 1801.5H2992.04ZM2785.04 1901.5C2809.54 1901.5 2822.04 1879.5 2822.04 1849C2822.04 1821 2811.04 1801.5 2788.54 1801.5H2769.04V1901.5H2785.04ZM3308.32 1994.5H3228.32V1944.5H3308.32V1994.5ZM3478.49 1749H3612.99L3644.49 2099H3581.49L3575.49 2029H3515.99L3509.99 2099H3446.99L3478.49 1749ZM3520.99 1976.5H3570.49L3554.99 1801.5H3536.49L3520.99 1976.5ZM3794.33 1924V1749H3857.33V1924C3857.33 2035 3845.83 2104 3762.33 2104C3681.83 2104 3669.33 2035 3669.33 1924V1749H3732.33V1924C3732.33 2005 3739.83 2049 3763.33 2049C3788.83 2049 3794.33 2005 3794.33 1924ZM3956.04 1836C3956.04 1909 4066.04 1904 4066.04 2007.5C4066.04 2060 4048.54 2104 3973.54 2104C3906.54 2104 3882.54 2066.5 3882.54 1992H3948.54C3948.54 2032.5 3951.54 2052 3976.54 2052C4000.04 2052 4000.54 2034.5 4000.54 2009.5C4000.54 1930 3890.54 1953 3890.54 1837C3890.54 1782.5 3913.54 1743.5 3974.54 1743.5C4040.54 1743.5 4058.04 1785 4058.04 1856H3995.04C3995.04 1816 3988.04 1796 3974.54 1796C3959.54 1796 3956.04 1811.5 3956.04 1836ZM4072.68 1749H4274.18V1801.5H4204.68V2099H4141.68V1801.5H4072.68V1749ZM4559.02 1946.5L4550.52 2015.5H4487.52L4519.02 1749H4643.52L4675.02 2015.5H4612.02L4603.52 1946.5H4559.02ZM4407.02 1948C4442.52 2017 4482.52 2051.5 4573.02 2051.5C4593.02 2051.5 4615.02 2050 4640.52 2046.5V2099C4610.52 2103 4584.02 2105 4560.52 2105C4446.02 2105 4395.52 2060 4353.02 1968.5V2099H4290.02V1749H4385.52C4443.02 1749 4471.52 1792.5 4471.52 1850C4471.52 1895.5 4450.02 1934 4407.02 1948ZM4576.02 1801.5L4565.02 1894H4597.52L4586.52 1801.5H4576.02ZM4369.02 1901.5C4393.52 1901.5 4406.02 1879.5 4406.02 1849C4406.02 1821 4395.02 1801.5 4372.52 1801.5H4353.02V1901.5H4369.02ZM4893.13 2015.5H4830.13V1749H4893.13V2015.5ZM4765.13 1749V2047.5C4800.13 2048 4825.63 2056.5 4859.13 2056.5C4872.13 2056.5 4885.63 2055.5 4901.13 2052V2104C4874.13 2108.5 4855.13 2110 4839.13 2110C4802.13 2110 4786.13 2101 4744.13 2099H4702.13V1749H4765.13ZM4955.05 1749H5089.55L5121.05 2099H5058.05L5052.05 2029H4992.55L4986.55 2099H4923.55L4955.05 1749ZM4997.55 1976.5H5047.05L5031.55 1801.5H5013.05L4997.55 1976.5Z" fill="white"/>
</g>
<defs>
<filter id="filter0_d_136_171" x="1316.58" y="437.74" width="5046.51" height="1180.44" filterUnits="userSpaceOnUse" color-interpolation-filters="sRGB">
<feFlood flood-opacity="0" result="BackgroundImageFix"/>
<feColorMatrix in="SourceAlpha" type="matrix" values="0 0 0 0 0 0 0 0 0 0 0 0 0 0 0 0 0 0 127 0" result="hardAlpha"/>
<feOffset dx="5" dy="8"/>
<feComposite in2="hardAlpha" operator="out"/>
<feColorMatrix type="matrix" values="0 0 0 0 0 0 0 0 0 0 0 0 0 0 0 0 0 0 0.25 0"/>
<feBlend mode="normal" in2="BackgroundImageFix" result="effect1_dropShadow_136_171"/>
<feBlend mode="normal" in="SourceGraphic" in2="effect1_dropShadow_136_171" result="shape"/>
</filter>
<filter id="filter1_d_136_171" x="1388" y="1743.5" width="3738.05" height="374.5" filterUnits="userSpaceOnUse" color-interpolation-filters="sRGB">
<feFlood flood-opacity="0" result="BackgroundImageFix"/>
<feColorMatrix in="SourceAlpha" type="matrix" values="0 0 0 0 0 0 0 0 0 0 0 0 0 0 0 0 0 0 127 0" result="hardAlpha"/>
<feOffset dx="5" dy="8"/>
<feComposite in2="hardAlpha" operator="out"/>
<feColorMatrix type="matrix" values="0 0 0 0 0 0 0 0 0 0 0 0 0 0 0 0 0 0 0.25 0"/>
<feBlend mode="normal" in2="BackgroundImageFix" result="effect1_dropShadow_136_171"/>
<feBlend mode="normal" in="SourceGraphic" in2="effect1_dropShadow_136_171" result="shape"/>
</filter>
</defs>
</svg>
