<svg width="11189" height="6798" viewBox="0 0 11189 6798" fill="none" xmlns="http://www.w3.org/2000/svg">
<path fill-rule="evenodd" clip-rule="evenodd" d="M617 4221C591.611 4224.5 567.517 4228.69 544.731 4232.65C502.678 4239.96 465.077 4246.5 432 4246.5C364 4129.5 332.5 4053.5 298 3917.5C130.5 3873.5 88.0021 3705 126.001 3509.5C110.961 3466.35 92.1807 3425.75 74.6236 3387.8C20.9762 3271.83 -21.2537 3180.54 89.4985 3116.5C83.0317 3094.5 76.21 3074.49 70.0014 3056.28C41.6468 2973.14 26.0785 2927.48 115.5 2900C110.814 2893.85 108.907 2889.17 107 2884.5C105.093 2879.83 103.186 2875.15 98.4998 2869C98.0084 2866.95 97.3023 2864.97 96.6013 2863.01C93.0231 2852.97 89.5781 2843.31 115.5 2827C135.262 2822.54 155.337 2815.97 174.322 2809.75C209.362 2798.27 240.691 2788.01 259.5 2794.5L282.5 2851L315 2839.5C282.5 2648 272 2503 460.5 2322.5C649 2142 1115.5 2096 1287 2278.5C1458.5 2461 1623 2686.5 1404 2968C1448 2958 1462.5 2998 1472 3029C1490.19 3030.97 1500.17 3037.28 1514.75 3046.53L1515.5 3047C1618.5 3005.5 1711.5 2977 1764.5 3029L2048.5 3393.5V3393.5C2048.5 3437.5 2048.5 3444.5 2031.5 3454C1995.42 3462.36 1963.03 3471.55 1932.28 3480.28C1834.34 3508.06 1753.14 3531.09 1623 3507.5L1638.5 3561.5C1655.5 3571.5 1672 3586 1655.5 3609.5C1672 3680.5 1727.5 3794.5 1727.5 3794.5C1845.5 3799 1966 3869.5 1884.5 3967C1884.5 3967 1913.5 3988 1908.5 4013.5C1910.57 4015.94 1912.63 4018.32 1914.66 4020.66L1914.67 4020.68C1934.66 4043.78 1951.16 4062.86 1938 4091C1952.99 4100.87 1959.69 4113.68 1966.7 4127.08C1969.29 4132.01 1971.91 4137.02 1975 4142C2019.5 4133 2048.5 4145 2031.5 4184.5C2056.5 4210 2071 4229.5 2086.5 4258C2108 4265.5 2119 4286 2119 4307.5C2050.5 4420 1885.5 4590 1686.5 4641C1675.82 4626.76 1674.22 4625.98 1659.17 4618.6C1655.19 4616.65 1650.27 4614.24 1644 4611C1634.77 4602.49 1627.76 4593.71 1620.72 4584.89C1604.98 4565.16 1589.12 4545.28 1548 4528C1568 4510 1537.5 4468 1491.5 4437.5C1471.5 4429 1455 4418.5 1446.5 4397.5C1444.87 4393.47 1383 4393 1383 4429C1405.5 4437.5 1417 4451.5 1397 4477C1383 4510 1375 4524.5 1350.5 4546.5C1397 4558.5 1422 4579 1383 4611C1379 4663 1365.5 4694.5 1332 4714C1367 4738.5 1314 4773.5 1266 4768C1262.93 4768.52 1259.9 4769.03 1256.9 4769.54C1181.66 4782.29 1126.65 4791.62 1042.5 4769.5C1032.82 4764.72 1015.48 4761.37 995.435 4757.49C935.762 4745.94 852.044 4729.73 874.5 4657.5C873.408 4647.02 871.078 4636.16 868.767 4625.39C860.492 4586.84 852.471 4549.46 902.5 4535C902.5 4514.5 905.275 4503.92 912.5 4484C898.5 4479.5 894 4461 894 4437.5C802 4450 727 4390.5 686 4278L668.5 4301.5C663.09 4294.36 658.177 4288.25 653.657 4282.62L653.654 4282.62C638.272 4263.47 627.433 4249.98 617 4221ZM163 3520.5C137.5 3669.5 138.5 3797.5 259 3856.5H287C278.461 3820.21 269.411 3789.13 260.573 3758.77C240.428 3689.59 221.383 3624.18 212 3509.5C203 3539.5 176.5 3527 163 3520.5ZM1834 3945C1821 3914.5 1796 3866.5 1746.5 3828.5C1766 3828.5 1924.5 3855 1862 3945H1834Z" fill="white"/>
<path d="M8638 1864C8748.46 1864 8838 1953.54 8838 2064V4651C8838 4761.46 8748.46 4851 8638 4851H3039C2928.54 4851 2839 4761.46 2839 4651V2064C2839 1953.54 2928.54 1864 3039 1864H8638ZM7781.88 4737H8033.88V4485H7781.88V4737ZM8133.44 4737H8385.44V4485H8133.44V4737ZM8485 4737H8737V4485H8485V4737ZM3751 2285V4129H7515V2285H3751ZM2932 2883H3184V2631H2932V2883ZM2932 2531.44H3184V2279.44H2932V2531.44ZM2932 2179.88H3184V1927.88H2932V2179.88Z" fill="white"/>
<path d="M3888.4 2322C3955.6 2323.8 3988.6 2372.4 3988.6 2448C3988.6 2527.2 3946.6 2574 3865 2574H3850V2742H3774.4V2322H3888.4ZM3865.6 2511C3893.2 2511 3909.4 2488.2 3909.4 2448C3909.4 2409.6 3897.4 2385 3869.2 2385H3850V2511H3865.6Z" fill="white"/>
<path d="M4131.59 2378.4C4093.79 2378.4 4086.59 2434.8 4086.59 2532C4086.59 2629.2 4093.79 2685.6 4131.59 2685.6C4161.59 2685.6 4174.79 2651.4 4174.79 2588.4H4253.99C4253.99 2692.2 4222.19 2748 4131.59 2748C4025.99 2748 4007.99 2665.2 4007.99 2532C4007.99 2398.8 4029.59 2315.4 4135.79 2315.4C4225.79 2315.4 4253.99 2374.8 4253.99 2475.6H4174.79C4174.79 2412 4161.59 2378.4 4131.59 2378.4Z" fill="white"/>
<path d="M4459.22 2515.8C4501.22 2531.4 4520.42 2568 4520.42 2619C4520.42 2691.6 4483.22 2738.4 4400.42 2742H4290.02V2322H4404.62L4404.02 2322.6C4471.22 2326.8 4503.02 2367 4503.02 2429.4C4503.02 2468.4 4488.02 2497.8 4459.22 2515.8ZM4365.62 2385V2495.4H4372.82C4410.62 2495.4 4424.42 2475.6 4424.42 2438.4C4424.42 2404.2 4411.22 2385 4377.02 2385H4365.62ZM4365.62 2679H4390.82C4424.42 2679 4441.82 2658 4441.82 2617.2C4441.82 2583.6 4426.82 2558.4 4395.02 2558.4H4365.62V2679Z" fill="white"/>
<path d="M4629.87 2426.4C4629.87 2514 4761.87 2508 4761.87 2632.2C4761.87 2695.2 4740.87 2748 4650.87 2748C4570.47 2748 4541.67 2703 4541.67 2613.6H4620.87C4620.87 2662.2 4624.47 2685.6 4654.47 2685.6C4682.67 2685.6 4683.27 2664.6 4683.27 2634.6C4683.27 2539.2 4551.27 2566.8 4551.27 2427.6C4551.27 2362.2 4578.87 2315.4 4652.07 2315.4C4731.27 2315.4 4752.27 2365.2 4752.27 2450.4H4676.67C4676.67 2402.4 4668.27 2378.4 4652.07 2378.4C4634.07 2378.4 4629.87 2397 4629.87 2426.4Z" fill="white"/>
<path d="M5052.66 2322C5119.86 2323.8 5152.86 2372.4 5152.86 2448C5152.86 2527.2 5110.86 2574 5029.26 2574H5014.26V2742H4938.66V2322H5052.66ZM5029.86 2511C5057.46 2511 5073.66 2488.2 5073.66 2448C5073.66 2409.6 5061.66 2385 5033.46 2385H5014.26V2511H5029.86Z" fill="white"/>
<path d="M5542.45 2316C5628.25 2316 5656.45 2379 5656.45 2481.6C5656.45 2578.8 5624.65 2647.2 5542.45 2647.2C5460.25 2647.2 5428.45 2578.8 5428.45 2481.6C5428.45 2379 5457.25 2316 5542.45 2316ZM5320.45 2559.6C5363.05 2643 5411.05 2685 5520.85 2685C5544.25 2685 5571.25 2683.2 5601.25 2679V2742C5565.25 2746.8 5533.45 2749.2 5505.25 2749.2C5367.85 2749.2 5307.25 2695.2 5256.25 2585.4V2742H5180.65V2322H5294.65C5361.25 2323.8 5394.85 2375.4 5394.85 2443.2C5394.85 2496.6 5369.65 2542.2 5320.45 2559.6ZM5542.45 2584.2C5565.85 2584.2 5574.25 2553 5574.25 2481.6C5574.25 2404.8 5565.85 2379 5542.45 2379C5519.05 2379 5510.65 2404.8 5510.65 2481.6C5510.65 2553 5519.05 2584.2 5542.45 2584.2ZM5271.85 2505C5300.65 2505 5315.65 2478.6 5315.65 2442C5315.65 2408.4 5302.45 2385 5275.45 2385H5256.25V2505H5271.85Z" fill="white"/>
<path d="M5788.83 2595L5831.43 2322H5907.03L5838.03 2742H5739.03L5670.03 2322H5745.63L5788.83 2595Z" fill="white"/>
<path d="M6010.35 2742H5934.75V2322H6010.35V2742Z" fill="white"/>
<path d="M6171.21 2322.6C6251.01 2330.4 6291.81 2410.8 6291.81 2527.2C6291.81 2647.8 6244.41 2736.6 6146.61 2742H6057.21V2322H6171.81L6171.21 2322.6ZM6138.21 2679C6188.01 2679 6213.21 2614.2 6213.21 2527.2C6213.21 2440.8 6189.81 2385 6142.41 2385H6132.81V2679H6138.21Z" fill="white"/>
<path d="M6327.33 2322H6517.53V2385H6402.93V2505H6488.73V2568H6402.93V2679H6517.53V2742H6327.33V2322Z" fill="white"/>
<path d="M6663.98 2322.6C6743.78 2330.4 6784.58 2410.8 6784.58 2527.2C6784.58 2647.8 6737.18 2736.6 6639.38 2742H6549.98V2322H6664.58L6663.98 2322.6ZM6630.98 2679C6680.78 2679 6705.98 2614.2 6705.98 2527.2C6705.98 2440.8 6682.58 2385 6635.18 2385H6625.58V2679H6630.98Z" fill="white"/>
<path d="M7130.51 2515.8C7172.51 2531.4 7191.71 2568 7191.71 2619C7191.71 2691.6 7154.51 2738.4 7071.71 2742H6961.31V2322H7075.91L7075.31 2322.6C7142.51 2326.8 7174.31 2367 7174.31 2429.4C7174.31 2468.4 7159.31 2497.8 7130.51 2515.8ZM7036.91 2385V2495.4H7044.11C7081.91 2495.4 7095.71 2475.6 7095.71 2438.4C7095.71 2404.2 7082.51 2385 7048.31 2385H7036.91ZM7036.91 2679H7062.11C7095.71 2679 7113.11 2658 7113.11 2617.2C7113.11 2583.6 7098.11 2558.4 7066.31 2558.4H7036.91V2679Z" fill="white"/>
<path d="M7305.11 2463.6L7345.31 2322H7420.91L7345.31 2577V2742H7269.71V2577L7183.91 2322H7259.51L7305.11 2463.6Z" fill="white"/>
<path d="M7496.29 2572.2H7420.69V2496.6H7496.29V2572.2ZM7490.29 2710.8H7414.69V2635.2H7490.29V2710.8Z" fill="white"/>
<path d="M11189 1267.5C10982 1303.5 10809.5 1267.5 10647 1135C10340 1192.5 10129 1119 9879 1054C9345 1248 8647 1228.5 8424 1054C8026 1242.5 7690.5 1181.5 7369.5 1054C7108.5 1359.5 6746 1345 6473.5 1288.5C6300.5 1403 6143 1479.5 6025.5 1459.5C5734.5 1592 5469.5 1592 5338.5 1438C5167 1405 5068.5 1303.5 4954.5 1207.5C4582.5 1560.5 3954.5 1432.5 3717 977C3517 1063.5 3368.5 1116 3141 1116C2835.5 1189 2540.5 1201 2394 1054C2318 1131 2240 1149.5 2150.5 1131C1864.5 1480.5 1579.5 1398.5 1276 1297C1161.5 1399.5 1058.5 1408 917.5 1408C767 1482.5 602 1479.5 499 1335.5C223 1441 115 1247 0 1054V0H11189V1267.5ZM10424.9 1123.5H10676.9V871.5H10424.9V1123.5ZM10776.5 1123.5H11028.5V871.5H10776.5V1123.5ZM132.5 1009.5H385.5V759.5H132.5V1009.5ZM9158.79 478.9V618.9C9158.79 707.7 9168.79 762.9 9233.19 762.9C9299.99 762.9 9309.19 707.7 9309.19 618.9V478.9H9258.79V618.9C9258.79 683.7 9254.39 718.9 9233.99 718.9C9215.19 718.9 9209.19 683.7 9209.19 618.9V478.9H9158.79ZM8809.64 478.9V758.9H8869.24C8934.44 755.3 8966.04 696.1 8966.04 615.7C8966.04 538.1 8938.84 484.5 8885.64 479.3L8886.04 478.9H8809.64ZM9006.12 478.9L8980.92 758.9H9031.32L9036.12 702.9H9083.72L9088.52 758.9H9138.92L9113.72 478.9H9006.12ZM9338.16 478.9V758.9H9397.76C9462.96 755.3 9494.56 696.1 9494.56 615.7C9494.56 538.1 9467.36 484.5 9414.16 479.3L9414.56 478.9H9338.16ZM9512.63 708.5V758.9H9563.03V708.5H9512.63ZM9682.69 478.9V758.9H9733.09V602.5L9770.69 758.9H9793.89L9831.49 602.5V758.9H9881.89V478.9H9812.69L9782.29 612.9L9751.89 478.9H9682.69ZM8866.44 520.9C8898.04 520.9 8913.64 558.1 8913.64 615.7C8913.64 673.7 8896.84 716.9 8863.64 716.9H8860.04V520.9H8866.44ZM9394.96 520.9C9426.56 520.9 9442.16 558.1 9442.16 615.7C9442.16 673.7 9425.36 716.9 9392.16 716.9H9388.56V520.9H9394.96ZM3188.22 689.461L3289.02 689.816L3289.76 481.018C3357.24 627.657 3437.78 699.942 3620.98 700.588C3658.58 700.721 3700.99 697.67 3749.02 691.439L3749.31 607.439C3708.49 612.895 3673.28 615.171 3641.29 615.059C3496.49 614.548 3432.68 559.122 3376.27 448.522C3445.15 426.365 3479.77 364.887 3480.02 292.088C3480.35 200.088 3434.99 130.327 3342.99 130.003L3190.2 129.464L3188.22 689.461ZM1406.47 114.371C1264.87 113.872 1235.68 224.97 1235.05 402.568C1234.42 580.167 1258.03 690.652 1398.83 691.148C1519.63 691.575 1562.3 617.324 1562.78 478.925L1457.18 478.553C1456.89 562.552 1439.13 608.089 1399.13 607.948C1348.73 607.77 1339.39 532.538 1339.85 402.938C1340.31 273.339 1350.17 198.174 1400.57 198.352C1440.57 198.493 1458.01 243.354 1457.71 328.153L1563.31 328.526C1563.79 194.127 1526.47 114.794 1406.47 114.371ZM3024.94 688.885L3125.74 689.24L3127.71 129.244L3026.92 128.888L3024.94 688.885ZM2737.44 687.87L2838.24 688.227L2838.96 485.827L2953.35 486.23L2953.65 402.231L2839.25 401.828L2839.92 212.229L2992.72 212.768L2993.02 128.769L2739.42 127.874L2737.44 687.87ZM2414.79 686.732L2515.59 687.088L2516.38 463.089L2536.38 463.16C2645.18 463.544 2701.4 401.341 2701.77 295.742C2702.12 194.943 2658.35 129.988 2568.76 127.271L2416.76 126.735L2414.79 686.732ZM1953.85 685.106L2054.65 685.462L2055.76 372.664L2129.85 685.727L2176.25 685.891L2252.55 373.357L2251.45 686.156L2352.25 686.512L2354.23 126.515L2215.83 126.026L2154.08 393.811L2094.23 125.598L1955.83 125.109L1953.85 685.106ZM1592.5 683.831L1693.3 684.187L1703.3 572.222L1798.5 572.558L1807.7 684.591L1908.5 684.946L1860.08 124.771L1644.88 124.013L1592.5 683.831ZM489.5 675.5H742.5V425.5H489.5V675.5ZM132.5 666.5H385.5V416.5H132.5V666.5ZM9067.32 520.9L9079.72 660.9H9040.12L9052.52 520.9H9067.32ZM3525.49 557.05L3754.29 557.856L3754.58 473.857L3626.58 473.406L3626.87 392.606L3716.47 392.923L3716.77 308.923L3627.17 308.606L3627.5 215.008L3755.5 215.459L3755.79 131.46L3526.99 130.652L3525.49 557.05ZM1766.98 208.444L1790.79 488.529L1711.6 488.25L1737.38 208.34L1766.98 208.444ZM9200.82 118.5C9152.02 118.5 9133.62 149.7 9133.62 193.3C9133.62 286.1 9221.62 267.7 9221.62 331.3C9221.62 351.3 9221.22 365.3 9202.42 365.3C9182.42 365.3 9180.02 349.7 9180.02 317.3H9127.22C9127.22 376.9 9146.42 406.9 9200.02 406.9C9260.02 406.9 9274.02 371.7 9274.02 329.7C9274.02 246.9 9186.02 250.9 9186.02 192.5C9186.02 172.9 9188.82 160.5 9200.82 160.5C9211.62 160.5 9217.22 176.5 9217.22 208.5H9267.62C9267.62 151.7 9253.62 118.5 9200.82 118.5ZM9457.38 118.5C9386.57 118.5 9373.38 174.1 9373.38 262.9C9373.38 351.7 9390.17 406.9 9460.97 406.9C9532.17 406.9 9537.78 350.1 9537.78 271.3V250.5H9454.58V292.1H9486.58C9486.58 328.9 9485.78 365.3 9459.78 365.3C9431.78 365.3 9425.78 327.7 9425.78 262.9C9425.78 198.1 9430.17 160.5 9455.38 160.5C9475.37 160.5 9480.58 182.9 9480.58 225.3H9532.97C9532.97 158.1 9517.37 118.5 9457.38 118.5ZM8807.5 122.9V402.9H8867.1C8932.3 399.3 8963.9 340.1 8963.9 259.7C8963.9 182.1 8936.7 128.5 8883.5 123.3L8883.9 122.9H8807.5ZM8987.58 122.9V402.9H9114.38V360.9H9037.98V286.9H9095.18V244.9H9037.98V164.9H9114.38V122.9H8987.58ZM9297.73 122.9V402.9H9348.13V122.9H9297.73ZM9563.36 122.9V402.9H9613.76V244.9L9659.36 399.3L9658.16 402.9H9718.96V122.9H9668.56V274.9L9626.16 122.9H9563.36ZM9750.47 122.9V402.9H9877.27V360.9H9800.87V286.9H9858.07V244.9H9800.87V164.9H9877.27V122.9H9750.47ZM9898.91 122.9V402.9H9958.51C10023.7 399.3 10055.3 340.1 10055.3 259.7C10055.3 182.1 10028.1 128.5 9974.91 123.3L9975.31 122.9H9898.91ZM10173.1 122.9V402.9H10246.7C10301.9 400.5 10326.7 369.3 10326.7 320.9C10326.7 286.9 10313.9 262.5 10285.9 252.1C10305.1 240.1 10315.1 220.5 10315.1 194.5C10315.1 152.9 10293.9 126.1 10249.1 123.3L10249.5 122.9H10173.1ZM10321.5 122.9L10378.7 292.9V402.9H10429.1V292.9L10479.5 122.9H10429.1L10402.3 217.3L10371.9 122.9H10321.5ZM10475.4 331.7V382.1H10525.8V331.7H10475.4ZM2542.87 211.181C2580.47 211.313 2596.35 244.17 2596.17 295.37C2595.98 348.969 2574.27 379.293 2537.47 379.163L2516.67 379.09L2517.27 211.091L2542.87 211.181ZM3321.9 213.93C3357.9 214.057 3375.39 245.318 3375.23 290.118C3375.06 338.918 3354.93 374.046 3315.73 373.908L3290.13 373.818L3290.7 213.819L3321.9 213.93ZM8864.3 164.9C8895.9 164.9 8911.5 202.1 8911.5 259.7C8911.5 317.7 8894.7 360.9 8861.5 360.9H8857.9V164.9H8864.3ZM9955.71 164.9C9987.31 164.9 10002.9 202.1 10002.9 259.7C10002.9 317.7 9986.11 360.9 9952.91 360.9H9949.31V164.9H9955.71ZM10243.1 280.5C10264.3 280.5 10274.3 297.3 10274.3 319.7C10274.3 346.9 10262.7 360.9 10240.3 360.9H10223.5V280.5H10243.1ZM485.5 323.5H738.5V73.5H485.5V323.5ZM838.5 323.5H1091.5V73.5H838.5V323.5ZM10479.4 239.3V289.7H10529.8V239.3H10479.4ZM10231.1 164.9C10253.9 164.9 10262.7 177.7 10262.7 200.5C10262.7 225.3 10253.5 238.5 10228.3 238.5H10223.5V164.9H10231.1Z" fill="white"/>
<path d="M604.5 4783C686 4783 686 4839 635.5 4848.5C493.218 4901.8 442.418 5005.82 408.104 5076.08C406.364 5079.64 404.666 5083.12 403 5086.5C437.793 5074.98 417.593 5131.91 386.825 5218.62C354.807 5308.85 311.345 5431.33 306.5 5542.5C348.5 5415.5 437.5 5455 377.5 5580.5C381.114 5582.53 384.451 5584.3 387.497 5585.91C409.907 5597.74 416.645 5601.3 403 5644C462 5534 466 5423 437.5 5302.5C547.19 5337.27 543.218 5413.76 539.25 5490.17L539.117 5492.73C539.078 5493.49 539.039 5494.24 539 5495C550.674 5521.59 559.384 5535.61 569.124 5551.29C574.401 5559.78 579.981 5568.77 586.5 5580.5C638.359 5512.5 661.496 5466.51 698.535 5392.9L699.338 5391.3L701 5388C753 5337.5 777.5 5388 760.5 5426C710.842 5537 685 5604 655.5 5722C716.222 5614.6 739.497 5636.82 757.245 5653.77C762.88 5659.15 767.958 5664 773.5 5664C788.5 5630 816 5635 828 5644L881.5 5522C881.5 5488.5 881.5 5454.5 851.5 5426C864.5 5332 906 5302.5 928.5 5426C983.5 5264 1009 5332 983.5 5467.5L1031.5 5769.5C1098 5489.5 1136 5409.5 1304 5240.5C1411.5 5166.5 1446.5 5199 1314.5 5333.5C1306.78 5405.15 1292.05 5429.01 1273.86 5458.45C1267.3 5469.07 1260.29 5480.42 1253 5495L1177.5 5777C1226.76 5752.77 1268.36 5724.22 1307.77 5697.17C1375.69 5650.56 1437.1 5608.41 1520 5600.5C1521.24 5563.1 1523.52 5532.05 1525.67 5502.67C1529.66 5448.46 1533.22 5399.99 1529 5328C1589 5264 1683.5 5387.5 1683.5 5563C1699.62 5563 1716.5 5559.49 1732.27 5556.21C1758.14 5550.83 1781 5546.07 1792.5 5558.5C1805.95 5542.1 1814.95 5521.73 1823.46 5502.46C1839.16 5466.9 1853.21 5435.11 1890.5 5439C2000 5298.5 2052.5 5372.5 1992.5 5426C1989.43 5435.03 1986.34 5443.83 1983.28 5452.52C1962.51 5511.69 1943.5 5565.81 1943.5 5653C1970.12 5632.83 1996.37 5606.45 2021.2 5581.51L2021.2 5581.51C2067.02 5535.48 2107.99 5494.33 2137.5 5506C2182 5463 2257.5 5419.5 2281 5475C2375.5 5562.5 2472.5 5709 2530 5889.5C2533.5 5775 2537.5 5706 2576 5586.5C2592.5 5572.5 2631.54 5559 2630 5592.5C2629.41 5605.31 2627.2 5616.18 2625.1 5626.48C2618.26 5660.03 2612.65 5687.53 2668.5 5756C2699.98 5764.55 2715.95 5791.94 2733.35 5821.77C2741.38 5835.53 2749.71 5849.81 2760 5863C2769.58 5820.1 2784.98 5783.46 2794.07 5761.8L2795.17 5759.18C2795.64 5758.07 2796.08 5757.01 2796.5 5756C2805.03 5735.5 2905.5 5753.5 2905.5 5753.5C2901.64 5783.08 2896.12 5805.67 2891.02 5826.57C2882.17 5862.79 2874.56 5893.92 2879 5947.5C2916 5907 2940 5886 2973 5973C2973 5936.4 2969.74 5898.48 2966.78 5864.03C2963.72 5828.35 2960.97 5796.4 2962.5 5773.5C2965.5 5728.5 3058 5668.5 3081 5863C3091.5 5761 3144.5 5753.5 3144.5 5863C3146.48 5911.14 3142.59 5943.63 3138.13 5980.82L3138.13 5980.83L3138.13 5980.83C3135.82 6000.03 3133.37 6020.49 3131.5 6045C3167 5936 3186.76 5881.33 3248 5791C3268 5761.5 3333 5755.5 3302 5819.5C3280.02 5864.88 3262 5905 3248 5973C3307.5 5939 3315 5951.5 3310 6020C3314.24 6011.33 3317.35 6003.7 3320.02 5997.14V5997.13C3331.21 5969.64 3334.77 5960.89 3382 5973C3402.5 5905 3444.5 5909 3454 5973C3475.08 5934.86 3487.72 5906.64 3496.72 5886.53C3511.2 5854.18 3516.27 5842.84 3532 5845C3542.64 5835.32 3549.81 5822.38 3556.59 5810.15C3569.12 5787.56 3580.31 5767.37 3609.5 5774.5C3639 5716 3694.5 5711 3674.5 5791C3663.84 5833.63 3657.91 5869.54 3651.27 5909.7L3651.27 5909.7L3651.27 5909.71L3651.27 5909.72C3647.67 5931.48 3643.87 5954.49 3639 5980.5H3658C3636 5927 3703 5825 3780 5742C3848.5 5754 3844 5775.5 3788.5 5863C3787.33 5879.13 3784.09 5893.24 3781.01 5906.59C3775.34 5931.23 3770.27 5953.26 3780 5980.5L3765 6012C3785 5991 3812.5 6018 3817.5 6036.5L3903.5 5807.5C3934.5 5776 3966.5 5783.5 3961 5845C3999.5 5852.5 4017.5 5863 4046.5 5892C4055.09 5908.74 4051.41 5924.24 4047.67 5940.01C4047.28 5941.67 4046.88 5943.33 4046.5 5945C4053.59 5946.2 4059.32 5945.82 4064.88 5945.25L4069.62 5944.75C4075.18 5944.18 4080.91 5943.8 4088 5945C4099.93 5959.58 4095.07 5993.7 4089.98 6029.39L4089.97 6029.45C4089.7 6031.38 4089.42 6033.33 4089.14 6035.28C4088.99 6036.37 4088.83 6037.47 4088.68 6038.56C4088.45 6040.21 4088.22 6041.85 4088 6043.5C4135 6043.5 4137.5 6043.5 4157 6137.5C4162 6109.5 4174 6091 4219.5 6103.5L4203 5818L4178.5 5764C4189 5743.5 4215.5 5741.5 4252 5764C4285 5778.5 4327 5820 4348.5 5925C4363.05 5896.66 4372.06 5872 4380.59 5848.68C4396.33 5805.63 4410.4 5767.14 4454.5 5718.5C4481.5 5696 4551.5 5718.5 4500 5769C4452.88 5792.99 4453.35 5861.91 4454.23 5993C4454.36 6012.16 4454.5 6032.64 4454.5 6054.5C4468.5 6004 4473 5977.5 4481.5 5918C4494 5888.5 4544.5 5890.5 4544.5 5939.5C4544.22 5940.34 4543.94 5941.18 4543.66 5942.01C4543.33 5943 4543 5943.99 4542.67 5944.96L4541.79 5947.56L4541.54 5948.3C4529.62 5983.56 4521.75 6006.84 4531 6060.5C4538.18 6055.1 4543.02 6046.85 4547.71 6038.86C4556.9 6023.2 4565.49 6008.56 4590 6018.5C4594 5934.5 4593 5838 4576 5797C4582.5 5763 4633 5741 4668.5 5809C4728.5 5849 4781.5 5922 4822.5 6024C4836 5989.5 4870 5914.5 4893.5 5952.5C4895.22 5949.61 4896.91 5946.75 4898.58 5943.94C4900.29 5941.05 4901.98 5938.21 4903.64 5935.4L4903.78 5935.16L4904.32 5934.25C4949.79 5857.48 4978.97 5808.21 5043.5 5746C5057.5 5746 5070 5750.5 5075 5767.5C5072.06 5779.85 5069.22 5791.68 5066.48 5803.12C5041.23 5908.32 5024.08 5979.76 5011 6111C5048.5 6028.5 5137.5 5821 5143 5607C5143 5561 5169.5 5496 5225 5567C5257.79 5586.51 5246.48 5752.14 5235.96 5905.96L5235.96 5905.98L5235.96 5906L5235.96 5906.03L5235.96 5906.06L5235.96 5906.1L5235.95 5906.14C5233.81 5937.53 5231.69 5968.44 5230 5997.5C5310.34 5912.46 5298.22 6015.71 5287.54 6106.71C5284.59 6131.81 5281.76 6155.98 5281 6175C5302.34 6137.67 5314.8 6101.32 5326.57 6066.95C5348.31 6003.5 5367.75 5946.78 5436.5 5903C5485.5 5860 5537 5909 5474 5941.5C5476.24 5974.75 5468.44 6007.16 5458.92 6046.65L5458.92 6046.68L5458.9 6046.74C5455.69 6060.08 5452.28 6074.23 5449 6089.5C5460.45 6076.07 5470.18 6061.79 5479.38 6048.28C5509.56 6003.98 5534.07 5967.99 5595 5997.5C5609.48 5956.19 5617.67 5918.48 5625.42 5882.81C5639.72 5816.98 5652.5 5758.12 5700.5 5696.5C5750 5662 5794.5 5693.5 5752.5 5744.5C5734 5813 5721.5 5860 5726.5 5959C5685 6073 5667.5 6159 5650.5 6306C5690.5 6228.5 5711 6179.5 5742.5 6089.5C5747.35 6075.66 5786 6058 5801.5 6092C5832 6003 5823 5905 5808 5781C5828 5704.5 5861 5733.5 5872 5775C5912.5 5892.5 5922 5963.5 5931.5 6096.5C5933.13 6085.97 5934.61 6076.02 5936.01 6066.54C5944.09 6012.09 5949.84 5973.38 5969 5932.5C5986 5908 6033 5907.5 6033 5941.5C6032.26 5946.92 6031.48 5951.92 6030.74 5956.67C6026.97 5980.84 6024.22 5998.49 6033 6031.5C6040.83 6013.36 6047.96 5996.35 6054.75 5980.17L6054.8 5980.04L6054.85 5979.93C6090.43 5895.04 6116.43 5833.01 6184 5749.5C6230.73 5691.74 6295.5 5733.5 6236 5787C6177 5964.5 6146.5 6081 6143 6298.5C6165.67 6291.42 6185.83 6219.85 6210.23 6133.21L6210.24 6133.2C6220.28 6097.54 6231.05 6059.32 6243 6022C6261 6008.5 6268.5 6009.5 6295.5 6015.5C6290 6102.5 6290 6156 6295.5 6242C6312 6239 6325 6237 6341.5 6250C6356 6223.5 6358 6220 6391 6203C6410.65 6192.88 6413.4 6177.57 6418.7 6148.16L6419 6146.5C6425.5 6067 6427 6025 6419 5941.5C6433 5929 6446.5 5923.5 6470.5 5932.5C6475.7 5953.7 6480.79 5973.66 6485.65 5992.72C6517.23 6116.61 6539.27 6203.07 6521.5 6353C6522.6 6354.1 6523.66 6355.18 6524.71 6356.23C6541.73 6373.47 6552.01 6383.88 6568.5 6341C6569.68 6329.31 6570.68 6317.57 6571.69 6305.81L6571.69 6305.77C6580.04 6207.87 6588.59 6107.79 6701.5 6010.5C6705.5 5982 6706.5 5970.5 6701.5 5941.5C6708.67 5934.1 6715.83 5931.73 6722.75 5929.44C6730.8 5926.77 6738.51 5924.22 6745.5 5914C6757 5918.5 6762 5923.5 6769.5 5941.5C6771.11 5940.52 6772.65 5939.57 6774.14 5938.65L6774.29 5938.56C6795.44 5925.56 6805.9 5919.13 6832 5914C6845 5918 6859 5934 6861.5 5958.5C6846.5 5978 6837 5984 6818 5990.5C6815.98 6011.89 6813.91 6031.94 6811.94 6051.03L6811.9 6051.42L6811.88 6051.62L6811.87 6051.74L6811.86 6051.79V6051.79C6800.18 6164.74 6791.96 6244.34 6818 6372C6831.72 6291.51 6849.2 6226.71 6865.73 6165.43C6896.24 6052.34 6923.51 5951.21 6918 5785.5C6932.5 5768.5 6942 5760.5 6977.5 5785.5C6985.46 5811.92 6990.73 5834.52 6995.71 5855.9L6995.71 5855.91C7004.9 5895.37 7013.12 5930.65 7035.5 5978C7044.49 5961.74 7048.09 5942.27 7051.49 5923.86C7057.77 5889.88 7063.38 5859.5 7101 5859.5L7136 5791C7158.5 5791 7180.5 5791 7198.5 5817.5C7167.5 5881.5 7149 5953.5 7144.5 6055.42C7160 6073 7170 6106.5 7144.5 6138.92C7135.5 6173.92 7138.5 6211.5 7149 6259C7188.5 6175.5 7215 6096 7247 5983C7249.89 5972.79 7318.5 5969.5 7309 6010.5C7305.53 6069.1 7311.85 6110.37 7323.4 6185.68C7325.15 6197.11 7327.02 6209.32 7329 6222.5L7351 6211.5C7349.83 6191.6 7349.49 6175.5 7349.16 6160.27C7348.55 6132.17 7348.01 6107.04 7342.5 6066.5C7345.65 6063.12 7348.15 6059.91 7350.39 6057.03C7357.59 6047.77 7362.12 6041.95 7377 6045C7374.14 6030.72 7371.69 6016.69 7369.33 6002.71L7364.67 5974.79C7362.31 5960.81 7359.86 5946.78 7357 5932.5C7414 5888 7433 5882 7476.5 5872C7536.05 5858.31 7559.52 6015.5 7577.42 6135.4C7579.5 6149.38 7581.52 6162.86 7583.5 6175.5C7592.16 6122.7 7604.93 6088.26 7619.56 6048.82C7620.63 6045.93 7621.72 6043 7622.81 6040.04C7623.51 6038.16 7624.21 6036.26 7624.91 6034.34C7625.44 6032.91 7625.97 6031.46 7626.5 6030C7645.5 6023 7661.5 6023 7678.5 6030C7684.75 6058.57 7679.84 6124.22 7674.44 6196.33C7673.8 6204.98 7673.14 6213.72 7672.5 6222.5L7673.46 6218.21C7699.89 6100.76 7716.12 6028.62 7767 5915C7791 5892 7828 5889.5 7832.5 5925C7832.5 5943.58 7824.09 5961.69 7816.75 5977.48C7807.31 5997.8 7799.65 6014.28 7814 6023C7810.5 6064.51 7806.31 6099.94 7802.35 6133.45C7795.04 6195.29 7788.5 6250.59 7788.5 6325.5C7800.88 6332.85 7818.2 6255.53 7839.08 6162.3C7867.94 6033.42 7903.62 5874.12 7942.5 5866C7942.5 5825 7993.5 5780 8001.5 5851.5C8010.5 5874 8019.5 5810.5 8015 5785.5C8010.5 5760.5 8035.5 5736 8054 5785.5L8060 5831.5C8114 5955 8131 6033.5 8156.5 6180C8166.39 6162.91 8175.47 6147 8184.06 6131.95L8184.08 6131.92C8231.52 6048.83 8263.77 5992.35 8331.5 5911.5C8364.5 5851.5 8378.5 5834.5 8460 5795.5C8499 5792 8546 5831.91 8481.5 5874C8434 5905 8384 5963.5 8384 6112.5C8399.23 6088.76 8407.09 6066.64 8414.53 6045.71C8428.25 6007.1 8440.52 5972.58 8495 5939.5C8522.5 5931.5 8536.5 5939.5 8546 5963.5C8543.46 5980.79 8534.74 6001.49 8526.49 6021.07C8511.27 6057.2 8497.67 6089.5 8527.5 6089.5C8518 6106.02 8509.34 6115.96 8501.39 6125.09C8482.15 6147.18 8467.03 6164.54 8454 6258.99C8460.01 6215.5 8545.14 6194.5 8536.5 6259C8542.26 6229.7 8545.15 6195.68 8547.88 6163.51V6163.5C8552.92 6104.11 8557.42 6051.01 8578.5 6045.5C8578.5 6009.5 8588 6003 8625.5 5984L8627 5985.65L8627.01 5985.65C8652.07 6013.11 8666.37 6028.79 8685 6068.5L8685.28 6068.42C8740.14 6051.96 8782.47 6039.26 8762 6194.5L8770.04 6174.43C8827.14 6031.79 8856.97 5957.29 8932.5 5822C8943.1 5801.11 8952.23 5782.11 8960.71 5764.46C8992.61 5698.07 9015.33 5650.78 9073 5593.5L9074.31 5594.22C9093.68 5604.86 9108.62 5613.07 9114 5638.5C9108.53 5656 9103.49 5670.59 9098.87 5683.96L9098.82 5684.08L9098.78 5684.22L9098.76 5684.26C9082.31 5731.83 9071.13 5764.17 9064.5 5858.5C9067.24 5863.56 9069.74 5866.09 9071.62 5867.99C9072.7 5869.09 9073.58 5869.98 9074.19 5871.02C9076.8 5875.55 9074.3 5883.03 9061.01 5922.8L9061 5922.84L9061 5922.86L9060.99 5922.87C9057.35 5933.78 9052.89 5947.12 9047.5 5963.5C9057.94 5967.94 9066.11 5969.38 9072.31 5970.46C9077.76 5971.42 9081.69 5972.11 9084.29 5974.34C9090.99 5980.09 9088.88 5996.09 9081.36 6053.27V6053.29L9081.35 6053.38C9079.04 6070.92 9076.23 6092.33 9073 6118.5C9129.5 6009.5 9153.5 5947 9192.5 5816C9193.98 5815.83 9195.43 5815.67 9196.87 5815.5C9255.58 5808.75 9277.13 5806.27 9262 6022C9299 6009.5 9322 6009.5 9326 6052C9355 6030.5 9386.5 5987.5 9407 5927C9482.5 5943 9482 5945.5 9445.5 6009.5C9506.85 6006.04 9503.24 6032.45 9478.22 6215.51V6215.52C9474.29 6244.3 9469.82 6276.97 9465 6314C9471.66 6302.97 9478.19 6292.42 9484.53 6282.16C9528.22 6211.56 9563.21 6155.04 9571.5 6052C9657.5 5986.5 9651 6070 9626 6265C9628.78 6269.17 9630.67 6273.07 9632.45 6276.73C9637.06 6286.24 9640.89 6294.14 9657.5 6301C9689 6239 9702.5 6184.5 9710.5 6103C9789.72 6090.12 9788.05 6100.88 9776.82 6173.1C9770.62 6213.01 9761.5 6271.68 9761.5 6355.5C9762.37 6354.51 9763.22 6353.54 9764.06 6352.58C9765.3 6351.17 9766.51 6349.8 9767.7 6348.46C9791.41 6321.62 9805.74 6305.41 9820.5 6239C9815.5 6109.5 9820.5 6103 9872.5 6103C9895.65 6059.51 9915.56 6020.09 9934.21 5983.15L9934.22 5983.14L9934.23 5983.12C9992.14 5868.45 10038 5777.7 10131 5663.5C10156 5663.5 10165.5 5673.5 10177 5690.5C10165.7 5709.02 10155.2 5725.9 10145.3 5741.89C10103.7 5808.83 10071.8 5860.3 10031 5951.5C10073.5 5918.5 10095 5895.5 10131 5835.5C10155 5825.5 10180 5840.5 10189 5872C10180 5895.57 10171.3 5917.97 10162.9 5939.54C10104.9 6088.58 10062.5 6197.34 10062.5 6372.5C10131 6132 10146.5 6085.5 10253.5 5914C10278 5893.5 10288 5894 10306.5 5914C10316 5882.5 10324.5 5866 10362 5882.5C10365.5 5831 10362 5796.5 10349 5744.5C10365.1 5726.02 10384.4 5728.35 10408.5 5731.26L10410.5 5731.5C10424 5756 10438.5 5788 10434.5 5847.5C10521 5813 10523.7 5878.5 10463.5 5938C10480.4 5953.7 10472.7 5971.85 10463.6 5993.28C10457.4 6008.04 10450.5 6024.36 10450.5 6042.5H10487C10489.2 6033.68 10491.3 6025.12 10493.4 6016.72C10506.8 5963.7 10518.4 5917.43 10527 5857C10531.9 5822.57 10582.5 5808 10601.5 5857C10608.5 5943.36 10609.5 5994.83 10601.5 6082.57L10593.8 6083.47L10597.1 6140.02L10571.7 6145.75L10545.1 6107.24L10457.1 6155.18L10474.7 6204.35L10457.1 6224.42L10421.9 6198.61L10360.1 6294.9L10402.3 6323.99L10398.2 6347.35L10360.1 6342.43L10345 6457.16L10395.3 6460.03L10405.6 6490.35L10349.5 6523.95L10395.3 6613.68L10458.8 6582.54L10475.1 6600.98L10448.5 6655.07L10548 6713.66L10579.1 6664.9L10620.4 6678.42L10626.6 6728L10737.5 6721.03L10752.6 6713.66L10737.5 6671.05L10789.8 6651.79L10826.3 6704.24L10912.2 6639.09L10880.3 6582.54L10922.8 6512.47L10974.4 6523.95L11001 6410.04L10947 6399.79L10932.7 6328.91L10991.2 6298.18L10932.7 6197.79L10877.4 6223.2L10846.7 6192.87L10866.8 6136.33L10767.3 6090.03L10748.9 6136.33L10703.1 6127.73L10692 6072L10644 6077.61C10644.4 6017.87 10648 5986.15 10656.5 5921C10682 5908.5 10705 5908.5 10718 5921C10735.5 5957 10738.5 5986 10738.5 6031C10749.1 6006.44 10757.1 5984.3 10764.5 5963.81C10788.4 5897.56 10806 5848.55 10887 5790.5C10906 5795.5 10918.5 5804 10929 5819C10929 5807.67 10929 5800.5 10931.5 5790.5C10935.8 5789.65 10940.1 5788.73 10944.2 5787.85L10944.2 5787.85C10966.6 5783.03 10984.9 5779.1 10992.5 5790.5C10997 5825 10997.5 5845.5 10992.5 5882.5H11033.5C11056 5829.5 11091.5 5848.5 11099 5931C11105.5 5928.67 11110.7 5926.43 11115.7 5924.31C11124.8 5920.41 11133 5916.92 11146 5914C11146.4 5912.99 11146.8 5911.99 11147.2 5911C11157.5 5886.21 11164.2 5869.98 11194.5 5857V6798H5V5455C189 5027 387.5 4873.5 604.5 4783ZM846.632 6322.1L841.107 6458.31C965.5 6477.21 938.197 6579.92 848.354 6596.47L855.048 6724.14L984.223 6717.37C993.153 6630.53 1107.49 6644.7 1096.45 6722.44L1232.55 6715.31L1210.93 6303L846.632 6322.1ZM10665.8 6164.19C10788.8 6164.19 10888.5 6266.56 10888.5 6392.83C10888.5 6519.1 10788.8 6621.47 10665.8 6621.47C10542.9 6621.47 10443.2 6519.1 10443.2 6392.83C10443.2 6266.56 10542.9 6164.19 10665.8 6164.19ZM10665.8 6192.87C10551.5 6192.87 10458.8 6285.52 10458.8 6399.79C10458.8 6514.07 10551.5 6606.72 10665.8 6606.72C10780.2 6606.72 10872.9 6514.07 10872.9 6399.79C10872.9 6285.52 10780.2 6192.87 10665.8 6192.87ZM10595.9 6519.03C10605.1 6519.03 10612.6 6526.37 10612.6 6535.42C10612.6 6544.47 10605.1 6551.81 10595.9 6551.81C10586.6 6551.81 10579.1 6544.47 10579.1 6535.42C10579.1 6526.37 10586.6 6519.03 10595.9 6519.03ZM10745.6 6507.56C10754.9 6507.56 10762.4 6514.9 10762.4 6523.95C10762.4 6533 10754.9 6540.34 10745.6 6540.34C10736.4 6540.34 10728.9 6533 10728.9 6523.95C10728.9 6514.9 10736.4 6507.56 10745.6 6507.56ZM442 6005.5C450.5 5831 281 5816 281 5986L157 5978L127 6406.5L255 6422C303.5 6582 382 6516 415 6422L540 6441.5L559.5 6310C694 6344 694 6145 576 6145L583 6005.5H442ZM10660.5 6318.26C10700.1 6318.26 10732.1 6350.54 10732.1 6390.37C10732.1 6430.2 10700.1 6462.49 10660.5 6462.49C10621 6462.49 10588.9 6430.2 10588.9 6390.37C10588.9 6350.54 10621 6318.26 10660.5 6318.26ZM10531.2 6354.31C10540.5 6354.31 10548 6361.65 10548 6370.7C10548 6379.75 10540.5 6387.09 10531.2 6387.09C10521.9 6387.09 10514.4 6379.75 10514.4 6370.7C10514.4 6361.65 10521.9 6354.31 10531.2 6354.31ZM10786.6 6312.52C10795.8 6312.52 10803.3 6319.86 10803.3 6328.91C10803.3 6337.96 10795.8 6345.3 10786.6 6345.3C10777.3 6345.3 10769.8 6337.96 10769.8 6328.91C10769.8 6319.86 10777.3 6312.52 10786.6 6312.52ZM9935.5 6139L9903.5 6319L9995.5 6030.5L9935.5 6139ZM10655.6 6230.57C10664.9 6230.57 10672.4 6237.91 10672.4 6246.96C10672.4 6256.01 10664.9 6263.35 10655.6 6263.35C10646.3 6263.35 10638.8 6256.01 10638.8 6246.96C10638.8 6237.91 10646.3 6230.57 10655.6 6230.57ZM3978.5 6198.5L4021 6132.5L4035.5 5973.5L3978.5 6198.5ZM648 6078.5L771.5 6109.5C791.5 6059 877.5 6033 887 6136.5L1007 6183L1051 6059C1118 6059 1182 5989 1080 5924.5L1111 5804.5L1007 5762C973 5857 857 5832 887 5735L748 5708L648 6078.5ZM2235.5 5961L2259.5 5987L2281 5972.5L2312.5 6045.5V5837.5L2235.5 5961ZM2069 5972.5L2109 5934L2089 5889.5L2069 5972.5ZM1688.5 5636L1669.5 5903L1782 5615L1688.5 5636ZM2137.5 5783L2152 5889.5L2301.5 5740.5L2261 5580.5L2137.5 5783ZM1473.5 5878L1502 5870.5L1489.5 5837.5L1473.5 5878Z" fill="white"/>
<g clip-path="url(#clip0_136_59)">
<path fill-rule="evenodd" clip-rule="evenodd" d="M5719.85 3601.65C6407.57 3580.33 6881.37 3624.49 7463.28 3696.6L7439.15 3713.71C6953.1 3679.12 6642.43 3625.64 6099.58 3640.32C5225.88 3663.93 4495.15 3780.71 3799 3916L3818.91 3820.02C4446.41 3701.14 5081.74 3628.15 5719.85 3601.65Z" fill="white"/>
<path fill-rule="evenodd" clip-rule="evenodd" d="M4984.39 3025.91L4903.72 3102.48C4848.33 3044.97 4786.38 3016.21 4717.88 3016.21C4690.7 3015.59 4663.69 3020.48 4638.46 3030.6C4613.23 3040.71 4590.31 3055.83 4571.09 3075.04C4551.71 3093.83 4536.42 3116.41 4526.19 3141.39C4515.95 3166.36 4510.99 3193.18 4511.61 3220.16C4510.68 3257.38 4519.48 3294.2 4537.14 3326.99C4554.63 3358.02 4580.68 3383.37 4612.19 3399.99C4644.93 3417.6 4681.6 3426.65 4718.77 3426.28C4750.57 3426.72 4782.1 3420.46 4811.31 3407.9C4845.5 3390.91 4876.53 3368.2 4903.08 3340.77L4980.69 3421.56C4944.43 3459.23 4901.44 3489.79 4853.94 3511.67C4810.53 3529.21 4764.05 3537.89 4717.24 3537.19C4623.64 3537.19 4546.63 3507.67 4486.21 3448.62C4425.8 3389.57 4395.63 3313.24 4395.71 3219.65C4394.74 3163.73 4408.95 3108.6 4436.81 3060.11C4465.04 3012.56 4505.74 2973.63 4554.5 2947.54C4604.72 2919.6 4661.3 2905.05 4718.77 2905.3C4768.83 2905.23 4818.31 2915.89 4863.9 2936.56C4910.21 2957 4951.38 2987.53 4984.39 3025.91Z" fill="white"/>
<path fill-rule="evenodd" clip-rule="evenodd" d="M3870.48 3551.36V2899.42H4081.72C4161.75 2899.42 4213.95 2902.87 4238.21 2909.25C4275.87 2919.22 4309 2941.73 4332.15 2973.07C4358.81 3009.85 4372.3 3054.54 4370.44 3099.93C4371.6 3134.87 4364.1 3169.55 4348.61 3200.89C4335.52 3226.28 4316.52 3248.17 4293.22 3264.7C4272.84 3279.54 4249.65 3290.05 4225.06 3295.59C4179.93 3303.04 4134.21 3306.2 4088.49 3305.03H4002.71V3550.85L3870.48 3551.36ZM6451.35 2889.21L6283.76 3551.36H6101.23L5994.91 3141.92L5892.16 3551.36H5709.38L5541.79 2889.21H5714.36L5805.62 3332.98L5916.79 2889.21H6081.83L6187.14 3333.62L6283.76 2889.21H6451.35ZM7402.52 3051.94L7150.43 3734.64H6983.1L7058.91 3539.87L6875.5 3051.94H7039.13L7144.18 3365.66L7242.59 3051.94H7402.52ZM6727.82 3421.18V3316.78C6701.4 3319.46 6679.95 3321.75 6664 3323.67C6647.58 3325.62 6631.43 3329.43 6615.88 3335.03C6603.41 3338.97 6592.37 3346.47 6584.09 3356.6C6576.1 3367.71 6572.1 3381.21 6572.73 3394.89C6572.73 3418.24 6579.12 3434.45 6591.75 3443.13C6608.62 3452.82 6628 3457.26 6647.4 3455.89C6661.85 3455.69 6676.1 3452.52 6689.27 3446.58C6703.44 3440.4 6716.41 3431.75 6727.56 3421.05L6727.82 3421.18ZM6727.82 3497.76V3550.72H6882.64V3211.74C6882.64 3152.86 6862.99 3109.16 6823.67 3080.66C6784.36 3052.16 6721.69 3037.86 6635.66 3037.78C6600.74 3037.73 6565.89 3040.76 6531.51 3046.84C6497.17 3052.84 6472.28 3058.2 6456.84 3062.66V3183.15H6469.6C6492.99 3172.9 6517.09 3164.37 6541.72 3157.62C6562.73 3151.53 6584.44 3148.18 6606.3 3147.67C6637.56 3145.93 6668.81 3151.3 6697.69 3163.36C6707.83 3168.85 6716.13 3177.2 6721.55 3187.36C6726.98 3197.53 6729.29 3209.07 6728.2 3220.54V3223.22C6683.14 3226.29 6641.02 3230.37 6601.84 3235.99C6566.86 3240.16 6532.76 3249.76 6500.75 3264.45C6474.82 3276.21 6452.72 3295 6436.93 3318.69C6420.97 3345.67 6413.21 3376.71 6414.59 3408.03C6413.94 3428.7 6417.49 3449.28 6425.01 3468.54C6432.54 3487.8 6443.89 3505.33 6458.37 3520.09C6472.7 3534.65 6489.88 3546.11 6508.83 3553.75C6527.78 3561.39 6548.1 3565.05 6568.52 3564.51C6601.87 3566.49 6635.13 3559.25 6664.64 3543.57C6676.75 3537.83 6688.15 3530.67 6698.59 3522.26C6707.1 3515.2 6716.67 3507.16 6727.31 3498.14L6727.82 3497.76ZM5533.49 3347.92C5533.49 3380.97 5537.96 3411.73 5525.45 3436.36C5513.62 3460.49 5496.47 3481.61 5475.29 3498.14C5450.91 3517.33 5422.97 3531.52 5393.09 3539.87C5356 3549.13 5317.84 3553.42 5279.62 3552.64H5014.51V2890.75H5248.47C5285.4 2890.12 5322.33 2891.99 5359.01 2896.36C5383.65 2900.02 5407.48 2907.88 5429.47 2919.59C5451.74 2931.11 5470.18 2948.84 5482.57 2970.64C5494.62 2993.38 5500.69 3018.81 5500.18 3044.54C5500.65 3075.04 5492.22 3105.03 5475.93 3130.82C5459.91 3155.86 5436.55 3175.34 5409.04 3186.59V3190.04C5446.55 3196.79 5480.95 3215.24 5507.33 3242.75C5531.83 3269.3 5533.49 3303.5 5533.49 3348.43V3347.92ZM5331.18 3078.11C5331.03 3066.65 5328.23 3055.38 5323.02 3045.18C5317.8 3034.19 5308.71 3025.51 5297.49 3020.8C5285.15 3015.64 5271.93 3012.95 5258.56 3012.89C5243.62 3012.89 5221.29 3012.25 5191.67 3012.25H5180.06V3152.64H5201.12C5229.46 3152.64 5249.49 3152.64 5260.85 3151.75C5273.12 3150.91 5285.12 3147.75 5296.21 3142.43C5308.21 3137.57 5318.01 3128.49 5323.78 3116.91C5328.98 3104.82 5331.54 3091.77 5331.31 3078.62L5331.18 3078.11ZM5372.92 3347.15C5373.82 3330.21 5369.35 3313.42 5360.16 3299.16C5350.6 3286.85 5337.58 3277.69 5322.76 3272.87C5309.33 3268.49 5295.28 3266.29 5281.15 3266.36C5263.54 3266.36 5239.79 3265.72 5210.31 3265.72H5179.55V3431.64H5188.61C5231.84 3431.64 5261.62 3431.34 5277.96 3430.75C5295.57 3429.95 5312.89 3425.88 5329.01 3418.75C5342.99 3413.23 5354.65 3403.1 5362.07 3390.04C5369.2 3376.93 5372.81 3362.2 5372.54 3347.28L5372.92 3347.15ZM4002.2 3010.46V3195.27H4074.06C4126.01 3195.27 4160.86 3191.95 4178.22 3185.19C4194.91 3178.97 4209.3 3167.79 4219.44 3153.15C4229.5 3138.06 4234.67 3120.23 4234.25 3102.1C4235 3080.54 4227.52 3059.5 4213.32 3043.26C4199.44 3027.99 4180.83 3017.83 4160.47 3014.42C4129.05 3010.71 4097.4 3009.26 4065.77 3010.08L4002.2 3010.46Z" fill="white"/>
</g>
<defs>
<clipPath id="clip0_136_59">
<rect width="4080" height="1116" fill="white" transform="translate(3799 2800)"/>
</clipPath>
</defs>
</svg>
