<svg width="11897" height="2846" viewBox="0 0 11897 2846" fill="none" xmlns="http://www.w3.org/2000/svg">
<path d="M11392.5 912.815L11351 767.815L11483 726.815C11483 643.815 11555.5 581.817 11651.5 669.815L11775.5 643.815L11897 1068.32L11739.5 1119.82C11695.5 998.316 11594.5 1094.32 11636 1148.32L11483 1194.82L11431.5 1042.32C11483 1029.32 11548 933.816 11392.5 912.815Z" fill="white"/>
<path d="M1522 2544V2796H1270V2544H1522ZM1522 2192.44V2444.44H1270V2192.44H1522ZM1522 1840.87V2092.87H1270V1840.87H1522Z" fill="white"/>
<path d="M11600.5 0H11153.5L11138 155C11289 184 11249 299.5 11138 313V459H11296.5C11313 360.5 11452 383.5 11433.5 471.5H11600.5V0Z" fill="#D9D9D9"/>
</svg>
