<svg width="9243" height="1917" viewBox="0 0 9243 1917" fill="none" xmlns="http://www.w3.org/2000/svg">
<path d="M282.828 1916L1.32812 1547L1.73908 1547.12C15.0718 1551.07 26.9399 1554.59 37.8281 1563C100.828 1537 143.328 1534 174.328 1563C184.328 1445 328.828 1365 340.328 1615.5C576.328 1538.5 737.828 1900 282.828 1916Z" fill="#989898" stroke="black"/>
<path d="M8414.07 81.9638L7974.14 2.7469L7931.42 152.547C8074.89 207.848 8015.05 314.431 7903.42 308.046L7877.54 451.735L8033.53 479.824C8067.23 385.807 8199.95 433.077 8166.15 516.405L8330.51 546.001L8414.07 81.9638Z" fill="#D9D9D9"/>
<path fill-rule="evenodd" clip-rule="evenodd" d="M8152.33 1353L8172.33 1375.5L8139.83 1441.5L8261.33 1513L8299.33 1453.5L8349.83 1470L8357.33 1530.5L8492.83 1522L8511.33 1513L8492.83 1461L8556.83 1437.5L8601.33 1501.5L8706.33 1422L8667.33 1353L8719.33 1267.5L8782.33 1281.5L8814.83 1142.5L8748.83 1130L8731.33 1043.5L8802.83 1006L8731.33 883.5L8663.83 914.5L8626.33 877.5L8650.83 808.5L8529.33 752L8506.83 808.5L8450.83 798L8437.33 730L8317.33 744L8321.33 813L8290.33 820L8257.83 773L8150.33 831.5L8171.83 891.5L8150.33 916L8107.33 884.5L8031.83 1002L8083.33 1037.5L8078.33 1066L8031.83 1060L8013.33 1200L8074.83 1203.5L8087.33 1240.5L8018.83 1281.5L8074.83 1391L8152.33 1353ZM8405.33 1400.5C8555.55 1400.5 8677.33 1275.59 8677.33 1121.5C8677.33 967.413 8555.55 842.5 8405.33 842.5C8255.11 842.5 8133.33 967.413 8133.33 1121.5C8133.33 1275.59 8255.11 1400.5 8405.33 1400.5Z" fill="white"/>
<path fill-rule="evenodd" clip-rule="evenodd" d="M8240.83 1114.5C8252.15 1114.5 8261.33 1105.55 8261.33 1094.5C8261.33 1083.45 8252.15 1074.5 8240.83 1074.5C8229.51 1074.5 8220.33 1083.45 8220.33 1094.5C8220.33 1105.55 8229.51 1114.5 8240.83 1114.5ZM8486.33 1118.5C8486.33 1167.1 8447.15 1206.5 8398.83 1206.5C8350.5 1206.5 8311.33 1167.1 8311.33 1118.5C8311.33 1069.9 8350.5 1030.5 8398.83 1030.5C8447.15 1030.5 8486.33 1069.9 8486.33 1118.5ZM8392.83 963.5C8404.15 963.5 8413.33 954.546 8413.33 943.5C8413.33 932.454 8404.15 923.5 8392.83 923.5C8381.51 923.5 8372.33 932.454 8372.33 943.5C8372.33 954.546 8381.51 963.5 8392.83 963.5ZM8573.33 1043.5C8573.33 1054.55 8564.15 1063.5 8552.83 1063.5C8541.51 1063.5 8532.33 1054.55 8532.33 1043.5C8532.33 1032.45 8541.51 1023.5 8552.83 1023.5C8564.15 1023.5 8573.33 1032.45 8573.33 1043.5ZM8502.83 1301.5C8514.15 1301.5 8523.33 1292.55 8523.33 1281.5C8523.33 1270.45 8514.15 1261.5 8502.83 1261.5C8491.51 1261.5 8482.33 1270.45 8482.33 1281.5C8482.33 1292.55 8491.51 1301.5 8502.83 1301.5ZM8340.33 1295.5C8340.33 1306.55 8331.15 1315.5 8319.83 1315.5C8308.51 1315.5 8299.33 1306.55 8299.33 1295.5C8299.33 1284.45 8308.51 1275.5 8319.83 1275.5C8331.15 1275.5 8340.33 1284.45 8340.33 1295.5ZM8658.33 1130C8658.33 1269.45 8545.06 1382.5 8405.33 1382.5C8265.6 1382.5 8152.33 1269.45 8152.33 1130C8152.33 990.548 8265.6 877.5 8405.33 877.5C8545.06 877.5 8658.33 990.548 8658.33 1130Z" fill="white"/>
<path fill-rule="evenodd" clip-rule="evenodd" d="M9202.58 373.955C9202.58 548.753 9075.61 690.455 8893.08 690.455C8710.55 690.455 8562.58 548.753 8562.58 373.955C8562.58 199.157 8710.55 57.4552 8893.08 57.4552C9075.61 57.4552 9202.58 199.157 9202.58 373.955ZM8977.58 361.455C8977.58 413.922 8931.68 456.455 8875.08 456.455C8818.47 456.455 8772.58 413.922 8772.58 361.455C8772.58 308.988 8818.47 266.455 8875.08 266.455C8931.68 266.455 8977.58 308.988 8977.58 361.455ZM8684.03 392.455C8695.53 482.666 8773.77 552.455 8868.58 552.455C8890.5 552.455 8911.54 548.722 8931.08 541.867L8977.58 608.639C8947.22 622.034 8913.74 629.455 8878.58 629.455C8743.45 629.455 8633.37 519.896 8628.73 382.955L8684.03 392.455ZM8691.45 313.455C8715.49 239.779 8785.7 186.455 8868.58 186.455C8909.29 186.455 8946.95 199.325 8977.58 221.155C9024.23 254.405 9054.58 308.443 9054.58 369.455C9054.58 416.566 9036.48 459.52 9006.76 491.955L9054.58 555.411C9100.27 509.114 9128.58 444.912 9128.58 373.955C9128.58 285.64 9084.73 207.79 9018.08 161.899C8995.99 146.695 8971.4 134.999 8945.08 127.593C8923.9 121.637 8901.6 118.455 8878.58 118.455C8764.25 118.455 8667.86 196.877 8638.07 303.955L8691.45 313.455Z" fill="white"/>
<path fill-rule="evenodd" clip-rule="evenodd" d="M8638.07 155.955L8656.08 141.955C8605.08 32.9536 8702.58 33.9547 8739.58 83.9552L8761.58 75.9552C8778.58 -3.04885 8809.08 -14.0499 8852.08 57.4552L8878.58 53.9536C8898.58 -0.550625 8967.08 -33.5502 8981.58 53.9536L8999.58 62.9536C9042.58 36.4494 9115.08 19.4494 9104.58 127.593L9118.08 141.955C9190.08 141.955 9205.08 195.949 9180.08 229.953L9190.08 266.455C9242.58 249.449 9250.08 315.449 9205.08 338.453V376.453C9266.08 392.449 9242.08 446.953 9205.08 446.953L9194.58 475.953C9241.58 502.449 9227.58 596.953 9138.08 582.453L9123.58 596.953C9171.58 663.449 9080.08 742.449 9009.58 672.953L8979.58 684.953C9004.08 777.949 8900.58 791.949 8860.08 692.453H8835.08C8769.08 774.949 8718.08 756.449 8724.08 658.453L8704.08 644.453C8643.08 692.453 8556.58 677.949 8617.08 570.453L8595.08 535.953C8538.58 552.455 8448.07 516.449 8557.58 440.453L8555.08 389.453C8479.58 365.949 8466.58 288.949 8569.08 273.453L8576.58 250.953C8547.58 221.449 8524.08 115.449 8638.07 155.955ZM8893.08 690.455C9075.61 690.455 9202.58 548.753 9202.58 373.955C9202.58 199.157 9075.61 57.4552 8893.08 57.4552C8710.55 57.4552 8562.58 199.157 8562.58 373.955C8562.58 548.753 8710.55 690.455 8893.08 690.455Z" fill="white"/>
<path d="M8912.58 191.607C8936.36 197.283 8958.35 207.454 8977.58 221.155L9018.08 161.899C8995.99 146.695 8971.4 134.999 8945.08 127.593L8912.58 191.607Z" fill="white"/>
</svg>
