<svg width="1543" height="922" viewBox="0 0 1543 922" fill="none" xmlns="http://www.w3.org/2000/svg">
<path d="M94.5998 280.358C40.6332 314.571 -4.50706 394.551 0.362227 407.127C44.5144 521.156 360.437 680.891 474.689 624.374C474.689 624.374 487.425 651.596 498.353 667.322C528.188 710.253 573.143 737.357 603.152 748.871C645.665 765.183 673.506 757.386 718.757 762.466C732.332 763.991 742.741 753.567 730.881 743.785C726.831 740.445 699.684 731.677 687.26 722.764C665.081 706.855 642.389 669.177 642.389 669.177C642.389 669.177 687.147 655.54 696.088 653.01C710.983 648.797 721.386 636.471 712.729 627.37C704.071 618.268 682.972 601.813 670.024 582.476C678.947 579.94 684.839 576.476 694.197 568.491C694.197 568.491 771.873 660.549 808.73 682.384C842.284 702.262 890.753 734.056 899.834 723.289C908.297 713.254 912.004 668.911 895.912 641.096C882.413 617.761 863.814 592.677 860.966 577.814C858.568 565.302 860.785 556.525 860.675 543.786C860.568 531.296 857.376 511.972 857.376 511.972C857.376 511.972 922.798 587.656 963.57 637.111C1017.01 701.937 1036.21 748.795 1097.3 805.632C1138.45 843.918 1161.3 868.25 1214.12 888.732C1261.95 907.278 1300.99 920.12 1334.43 921.523C1357.37 922.486 1380.89 908.467 1383.65 894.636C1387.6 874.812 1372.58 863.799 1358.26 849.529C1335.81 827.153 1298.13 786.562 1298.13 786.562C1298.13 786.562 1317.82 760.382 1319.01 740.763C1320.78 711.445 1282.59 674.959 1282.59 674.959C1282.59 674.959 1310.82 644.505 1304.01 615.463C1294.42 574.626 1216.94 528.239 1216.94 528.239C1280.77 509.279 1328.13 498.887 1387.73 460.003C1395.3 425.876 1397 407.197 1395.86 363.248C1420.32 353.616 1438.49 344.066 1461.15 324.41C1464.57 307.892 1465.94 300.971 1458.56 281.081C1492.38 265.035 1511.27 254.385 1542.25 221.909C1542.25 221.909 1528.84 186.397 1481.93 172.873C1402.54 149.99 1331.28 166.585 1245.51 202.681C1187.01 227.297 1166.12 262.799 1109.86 292.169C1068.98 313.512 1047.04 332.141 1001.42 338.923C970.762 343.481 949.19 351.899 922.073 336.88L921.297 336.45C906.978 328.524 896.527 322.738 890.821 307.228C888.557 301.073 921.339 297.933 924.541 281.739C926.181 273.445 922.831 268.647 921.249 260.341C918.969 248.372 911.141 241.911 913.85 230.031C915.935 220.887 926.632 219.26 926.924 209.885C927.297 197.917 919.247 187.817 907.374 186.266C896.326 184.822 887.912 188.733 876.234 185.318C867.474 182.756 858.644 173.902 863.555 168.76C866.663 165.505 885.907 155.155 917.632 143.989C924.717 141.495 921.759 128.967 915.458 124.878C885.047 105.142 784.817 89.5495 784.817 89.5495C784.817 89.5495 745.365 2.80654 696.388 0.406079C625.239 -3.08108 577.611 16.5054 523.253 35.3676C452.691 59.8522 397.117 129.462 397.117 129.462C317.963 144.726 196.621 185.71 94.5998 280.358Z" fill="white"/>
</svg>
